<?xml version="1.0" standalone="no"?>
<!DOCTYPE svg PUBLIC "-//W3C//DTD SVG 1.1//EN" "http://www.w3.org/Graphics/SVG/1.1/DTD/svg11.dtd" >
<!--
2013-9-30: Created.
-->
<svg>
<metadata>
Created by iconfont
</metadata>
<defs>

<font id="iconfont" horiz-adv-x="1024" >
  <font-face
    font-family="iconfont"
    font-weight="500"
    font-stretch="normal"
    units-per-em="1024"
    ascent="896"
    descent="-128"
  />
    <missing-glyph />
    
    <glyph glyph-name="dianhua" unicode="&#58958;" d="M904.425879 54.137801c-3.071989 5.60972-74.039395 138.061433-120.608972 193.62437-20.613494 24.531393-43.319501 48.573048-73.505136 48.573049-25.911562 0-48.61757-17.496983-74.707218-37.798825-27.113645-20.969666-42.785242-23.195745-48.573048-26.13417-1.380169 1.513734-131.472238 153.599466-165.753859 221.806533-21.63749 43.096894-6.099457 58.768491 62.819956 94.519323 62.864477 32.5898 62.018567 78.625118 50.665563 101.909906-4.541202 6.811802-112.773173 169.360107-166.06551 222.429835A77.467557 77.467557 0 0 1 312.956632 895.996438C252.451799 895.996438 190.077059 832.597702 183.576908 825.830421c-43.185937-43.00785-104.892853-203.107467-52.00121-378.077293 53.025207-175.236956 164.195603-336.805785 339.922295-493.833413C532.225434-100.396618 598.117379-128 667.303921-128c109.300489 0 192.867503 69.854366 215.840641 91.180205 40.113947 37.398131 30.586328 77.333992 21.281317 90.957596zM330.409093 834.912825C379.338314 786.250733 486.323681 625.839465 487.036026 625.839465c1.157561-4.541202-3.161032-16.339421-27.959555-29.161638a428.876421 428.876421 0 0 1-53.203293-31.743889L239.317931 803.747716c21.815576 18.565501 51.823124 38.244041 73.638701 38.244041 7.167975 0 12.510565-2.181558 17.452461-7.078932zM507.738563-6.010859C339.669582 144.338531 233.619169 297.937997 183.487865 463.380204c-42.696199 141.222465-0.26713 269.533671 30.452763 313.565518l164.95247-236.454134c-21.726533-26.223213-30.853458-61.217178-6.143978-110.458051 37.264566-74.128438 167.579243-226.392256 174.658175-234.361619 3.428162-3.472684 16.2949-14.33595 40.20299-14.33595 6.678238 0 13.579083 1.068518 20.702537 2.804859l158.140667-234.584227c-28.271206-13.222911-61.795959-23.507396-99.149568-23.507397-55.473894 0-109.122403 22.795051-159.565358 67.939938z m338.453084 8.681709a318.151241 318.151241 0 0 0-47.682617-35.884397l-156.315282 231.467717c8.770752 4.897374 17.630547 10.507094 26.846515 17.630547 13.49004 10.551615 34.01449 26.445821 41.271508 26.445821 2.226079 0 9.794749-2.893903 31.788412-29.161638 42.874286-51.288865 113.708126-183.161798 115.756119-186.768046 0.222608 0 3.917899-9.26049-11.664655-23.730004z"  horiz-adv-x="1024" />

    
    <glyph glyph-name="VS" unicode="&#59091;" d="M893.891 564.21c3.067-36.298-7.157-69.016-26.584-99.179-7.157-11.758-17.382-20.961-29.652-26.584-14.315-7.668-31.696-5.112-42.944 5.624-9.202 7.668-17.893 15.848-27.095 24.028-16.871 14.315-36.809 24.539-58.281 29.14-4.090 1.022-8.691 3.067-12.781 3.067-6.646-1.022-12.781-2.556-18.916-4.601-1.534-1.022-3.067-2.556-3.579-4.090-0.511-3.067-2.556-6.135-5.624-7.668-10.736-6.135-21.472-11.247-31.185-18.404-22.494-16.871-32.208-39.876-27.095-66.972 3.067-16.359 13.803-26.584 30.163-31.696 5.112-1.534 10.736-4.090 15.848-5.624 1.022-0.511 1.534-0.511 2.556-0.511 22.494-2.045 44.989-4.090 66.972-6.135 6.646-0.511 13.292 0 19.938-0.511 3.067-0.511 6.135-1.534 9.202-3.067 1.534-0.511 3.067-0.511 5.112-1.022 40.387 0 75.151-13.803 102.247-43.966 12.27-13.292 18.916-28.629 18.404-46.522-0.511-5.624-2.045-11.247-3.579-16.359-1.022-4.601-2.045-8.691-2.556-13.292 0-2.045-1.022-4.090-3.067-5.112-3.579-2.045-6.646-4.601-9.202-7.668-5.624-8.691-12.27-16.359-19.938-23.517-1.534-1.534-2.556-3.067-4.090-4.601-14.826-18.916-35.786-29.652-55.213-42.432-5.624-3.579-11.247-6.646-17.382-9.713-3.579-1.534-7.668-2.045-11.758-3.067-2.556-0.511-4.601-1.022-6.646-2.556l-33.741-23.005c-3.067-1.534-6.135-4.090-8.691-6.646-5.112-8.18-13.803-11.247-21.983-14.826-1.534-0.511-2.556-1.534-3.067-2.556l25.050 5.624 0.511-0.511-5.112-3.067c-25.050-15.848-50.101-31.696-75.151-47.033-15.337-9.202-30.674-18.404-46.011-27.095-4.090-2.045-8.18-4.090-12.781-5.624-1.022 0-1.534-0.511-2.556-1.022-9.202-8.691-20.449-12.781-32.719-14.826-16.359-3.067-32.719-5.112-49.078-7.157-3.067-0.511-6.646-1.022-9.713-0.511 2.556 2.556 5.112 5.112 8.18 7.157l32.208 18.404c8.18 4.601 16.359 9.202 24.539 14.315 3.067 2.045 5.112 4.090 7.668 7.157-5.112 1.022-10.736 0-15.337-2.556-10.225-5.112-20.961-9.713-31.696-13.803-8.691-3.579-17.893-7.157-26.584-10.736-7.157-3.067-13.803-7.157-20.449-10.736-7.157-3.579-14.826-5.624-22.494-6.135-12.781-0.511-24.028-6.646-35.786-11.758-9.202-4.090-18.404-8.691-27.607-12.781l-0.511 1.022 16.359 13.292c-10.225 1.022-20.449-0.511-30.163-4.601-32.719-15.337-65.438-30.163-98.157-45.5-14.826-7.157-29.652-15.848-43.966-24.539-7.157-4.601-14.315-10.225-20.961-15.337-2.556-2.045-6.646-2.556-9.713-1.022-4.090 1.022-8.18 1.022-12.27 0-8.691-2.556-17.382-5.624-26.073-8.691-3.579-1.022-7.157-2.045-11.247-2.045 7.668 6.646 14.315 13.803 23.517 18.404 14.826 7.157 29.14 14.826 43.966 21.983 4.090 2.045 6.135 4.090 4.090 8.691-10.736 0-19.938-4.601-29.14-9.713l-1.022 1.022c0.511 0.511 1.534 0.511 2.045 1.022 1.022 0.511 2.045 1.534 3.067 2.045 9.202 8.691 20.961 14.315 33.23 16.871 12.27 3.579 24.028 8.18 35.275 12.781 12.781 5.112 25.562 9.713 38.854 14.315-4.090-2.556-7.668-5.624-12.27-8.18-5.112-2.556-10.225-5.112-15.848-7.157-1.534 0-3.067-1.022-3.579-2.556-1.022-1.022-1.022-2.556-1.022-4.090 8.691-1.534 16.871 2.556 25.050 5.112 6.646 2.045 12.27 6.135 16.871 11.247 3.579 3.579 7.668 6.646 12.27 9.202 2.556 1.534 3.067 3.067 2.045 5.624-0.511 1.022-1.022 2.045-0.511 3.067 0.511 1.022 1.022 2.045 2.045 2.556 2.045 1.022 4.090 2.556 6.135 3.579 9.713 5.112 19.427 9.713 29.14 14.826 4.601 2.556 10.225 3.579 15.337 1.534 1.534-0.511 3.067-1.022 4.601-1.022 6.646-1.534 13.803 0 19.938 3.579 8.691 5.112 18.404 8.18 28.118 12.27 4.090 1.534 7.668 3.579 11.247 6.135 2.556 2.556 5.112 5.112 7.668 8.18l-1.022 1.534c-3.067 0-6.646-0.511-9.713-1.022-8.18-3.067-16.359-6.646-24.539-10.225-7.668-3.579-15.337-7.668-22.494-11.247h4.601v-1.022l-26.073-4.601v0.511c8.691 4.601 17.382 9.713 26.584 14.315 6.135 3.067 11.758 6.646 17.893 9.713 8.18 4.601 14.826 10.736 19.938 17.893 1.534 2.556 4.090 3.579 7.157 3.579 9.713 0.511 19.427 2.556 26.584 9.202 1.022 1.534 2.556 3.067 3.067 5.112-0.511 0.511-0.511 1.022-1.022 1.534-9.202-1.534-18.404-2.556-27.607-4.090-16.359-3.067-32.208-8.691-47.545-16.359-8.18-4.090-10.225-6.646-13.292-15.337-1.534 0-3.067 0-4.601 0.511-3.579 0.511-7.157 1.022-9.202-3.067-1.022-1.022-2.045-1.534-3.579-2.045-26.073-8.18-51.635-15.848-77.707-24.028-2.045-0.511-4.090-1.022-6.135-0.511 1.022 0.511 2.045 1.534 2.556 2.045 21.472 16.871 42.944 33.741 63.904 51.123 5.112 4.090 9.713 9.202 16.871 8.18 1.022 0 2.045 0.511 3.067 1.022 5.112 2.045 11.247 2.556 16.359 1.534 16.871-3.067 33.741-2.556 49.078 6.135 0.511 0 0.511 0.511 1.022 0.511 4.601 3.579 10.225 6.135 16.359 6.135 10.225 0.511 17.382 8.18 23.517 15.848 0 1.534-1.022 3.579-2.045 4.601-2.045 0.511-4.090 1.022-5.624 1.022 6.646 4.090 13.292 7.668 19.938 12.27 4.090 2.556 8.18 5.624 12.27 8.691 25.050 23.005 53.679 42.432 83.842 57.258 9.202 4.601 18.916 6.646 28.118 10.225 4.601 2.045 8.691 4.090 12.781 6.646 12.27 6.646 24.539 13.803 36.809 20.449 22.494 11.758 44.989 22.494 64.927 38.854 12.27 9.713 23.005 21.472 34.253 32.719 4.090 3.579 1.534 12.27-3.579 15.848-5.112 3.579-10.225 6.646-14.826 10.225-7.668 5.624-16.871 7.157-25.562 8.691-24.539 4.090-49.59 4.601-74.64 5.624-16.359 0.511-33.23 3.067-49.078 7.668-14.315 3.579-26.584 12.27-35.275 24.539-2.045 2.556-4.601 5.112-7.157 7.157-6.135 6.646-10.225 14.315-11.758 23.005-3.067 13.292-2.556 26.584-1.022 39.365 3.067 33.741 18.916 61.859 39.876 87.932 11.758 14.826 26.584 26.584 39.876 39.876l1.534 1.534c14.826 8.691 28.118 19.427 44.477 26.584 15.848 7.157 32.208 12.781 49.078 16.871 18.404 3.579 37.32 3.067 55.724-1.022 7.668-1.534 15.337-3.067 23.005-4.090 10.736-1.534 21.983-0.511 32.208 3.067 13.803 4.601 27.607 9.202 41.41 14.826 6.646 3.579 12.781 7.157 18.916 11.758l1.022-8.691 24.028 20.449c2.556-4.090 5.112-7.668 7.668-11.758 0.511-1.022 0.511-2.045 0.511-3.067-2.556-18.916-2.556-36.298-1.022-53.168zM649.010 66.78l23.517 12.781c-11.758-1.022-21.983-6.646-23.517-12.781zM660.769 867.882c-0.511-1.022-1.534-2.556-1.534-4.090-0.511-11.247-7.157-19.938-11.758-29.652-6.646-14.315-14.315-29.14-20.961-43.455-0.511-0.511-0.511-1.022-0.511-2.045l1.022-0.511 22.494 32.208c0-8.18 0.511-16.359-4.090-23.517-4.090-6.646-7.668-13.292-11.247-20.449-1.022-2.045-2.045-4.601-2.045-6.646-1.022-7.157-1.534-14.315-4.601-20.961-0.511-2.045-0.511-4.601 0.511-6.646l1.534-1.022c2.045 1.534 4.090 3.579 6.135 5.624 4.090 6.135 8.18 12.781 12.27 18.916 1.534 1.534 3.579 3.067 5.624 4.090 1.534 1.022 3.579 1.534 5.624 2.556-0.511-5.624 0.511-11.247-3.067-16.359-6.135-8.691-11.247-18.404-15.337-28.629-1.022-3.579-3.579-6.135-5.112-9.202-3.067-6.646-5.624-13.292-8.18-19.938-6.646-20.961-17.893-39.365-30.163-57.258-26.584-38.342-46.011-79.752-63.393-122.185-23.517-58.281-42.432-118.095-56.747-178.932-6.646-27.095-11.247-54.191-13.803-81.797-1.022-10.736 0-21.472-0.511-32.208-0.511-8.18-1.534-16.871-3.067-25.050-3.067-12.781-12.781-19.427-25.562-20.961-10.736-1.022-21.472 0-31.696 2.556-1.022 0.511-2.045 1.022-2.556 2.556-1.534 10.225-6.135 19.427-13.292 26.073-7.668 8.18-16.359 15.337-25.050 22.494-10.736 8.18-15.848 17.382-14.315 30.674 1.022 7.157 1.022 13.803 1.534 20.961 1.022 13.292 0 26.584-4.090 38.854l-14.826 54.702c-0.511 1.022-0.511 1.534 0 2.556l13.292-31.185 2.045 0.511c0 3.579 0 6.646-0.511 10.225-3.579 19.938-11.247 38.854-17.893 58.281-7.157 21.472-18.916 40.899-29.14 60.837-3.579 6.646-6.135 13.292-9.713 19.938l2.045-15.337-1.022-0.511c-2.045 4.601-4.090 9.713-5.624 14.315-9.202 24.028-18.916 48.056-28.118 72.084-2.045 6.135-5.624 11.758-10.736 15.848-2.045 1.534-1.534 6.135-2.556 9.713 0 0-1.534 0.511-2.556 1.022-6.135 1.022-11.247 4.601-14.826 9.713-2.556 3.579-6.646 5.624-10.225 8.18-1.022 0.511-1.534 1.534-2.045 3.067 2.045 9.202-1.534 16.871-6.135 24.539-3.067 3.067-2.556 8.18 0.511 11.247 5.624 6.646 6.135 14.826 6.646 23.005 0 2.045 0.511 3.579 0.511 5.624-0.511 3.579 1.534 6.646 4.090 8.691 4.090 3.067 6.646 7.668 6.646 12.781s3.067 9.202 7.668 11.247c2.556 1.022 3.579 3.579 3.579 6.135v14.826c4.601-1.022 9.202-2.556 13.803-4.090 7.668-4.090 17.382-2.556 23.005 4.601 4.090 5.112 7.668 5.112 13.292 1.534 5.624-4.090 12.781-5.112 18.916-2.556 1.022 0.511 2.045 0.511 2.556 0.511 7.668 1.534 8.18 1.022 9.713-6.135 0-1.022 0.511-2.045 1.022-3.579l7.157 0.511c2.045-4.601 3.579-9.713 6.646-12.27 10.225-8.691 13.292-19.427 14.826-32.208 2.045-17.382 5.624-34.253 8.691-51.635 6.135-33.741 16.359-65.949 25.562-99.179 8.691-31.185 17.893-62.882 26.584-94.067 0.511-1.022 1.022-2.556 1.534-5.112 2.045 2.045 3.579 4.601 5.112 7.157 16.359 44.989 32.208 90.488 49.078 135.477 16.359 44.477 32.719 88.955 50.101 133.432 6.135 15.848 15.337 30.674 23.005 46.011 0.511 1.022 1.534 2.045 2.556 3.067 8.691 4.601 8.691 4.601 14.826 13.803v-8.18l1.534-1.022 38.342 38.342-6.646-27.095 0.511-0.511 5.624 8.18c11.247 15.848 23.005 31.185 33.741 47.545 11.758 17.893 21.983 36.809 33.741 54.702 3.579 4.601 7.668 8.691 11.758 12.781l1.022-0.511-3.067-5.624c-3.579-8.691-6.646-15.337-9.713-21.983zM620.381 781.995l-10.736-21.472 1.022-0.511 10.736 21.472s-0.511 0.511-1.022 0.511z"  horiz-adv-x="1024" />

    
    <glyph glyph-name="jianzhang" unicode="&#58892;" d="M197.058462 226.621538m39.384615 0l167.384615 0q39.384615 0 39.384616-39.384615l0 0q0-39.384615-39.384616-39.384615l-167.384615 0q-39.384615 0-39.384615 39.384615l0 0q0 39.384615 39.384615 39.384615ZM197.058462 422.313846m39.384615 0l236.307692 0q39.384615 0 39.384616-39.384615l0 0q0-39.384615-39.384616-39.384616l-236.307692 0q-39.384615 0-39.384615 39.384616l0 0q0 39.384615 39.384615 39.384615ZM197.058462 620.467692m39.384615 0l315.076923 0q39.384615 0 39.384615-39.384615l0 0q0-39.384615-39.384615-39.384615l-315.076923 0q-39.384615 0-39.384615 39.384615l0 0q0 39.384615 39.384615 39.384615ZM905.846154 620.307692H758.153846a9.846154 9.846154 0 0 0-9.846154 9.846154V817.230769a78.769231 78.769231 0 0 1-78.76923 78.769231H118.153846A78.769231 78.769231 0 0 1 39.384615 817.230769v-866.461538a78.769231 78.769231 0 0 1 78.769231-78.769231h787.692308a78.769231 78.769231 0 0 1 78.769231 78.769231V541.538462a78.769231 78.769231 0 0 1-78.769231 78.76923z m0-649.846154a19.692308 19.692308 0 0 0-19.692308-19.692307H137.846154a19.692308 19.692308 0 0 0-19.692308 19.692307V797.538462a19.692308 19.692308 0 0 0 19.692308 19.692307h512a19.692308 19.692308 0 0 0 19.692308-19.692307v-452.923077a39.384615 39.384615 0 0 1 39.384615-39.384616 39.384615 39.384615 0 0 1 39.384615 39.384616V531.692308a9.846154 9.846154 0 0 0 9.846154 9.846154h128a19.692308 19.692308 0 0 0 19.692308-19.692308z"  horiz-adv-x="1024" />

    
    <glyph glyph-name="shouye" unicode="&#58893;" d="M277.131897 224.301835v-352.301835h469.73578v352.301835a78.289297 78.289297 0 0 1-78.289297 78.289297H355.421193a78.289297 78.289297 0 0 1-78.289296-78.289297z m391.446483-274.012538H355.421193v254.440214a19.572324 19.572324 0 0 0 19.572325 19.572324h274.012538a19.572324 19.572324 0 0 0 19.572324-19.572324zM455.998474 873.063218L65.188091 482.09381A78.289297 78.289297 0 0 1 42.264007 426.753063v-476.463766a78.289297 78.289297 0 0 1 78.289296-78.289297h782.892967a78.289297 78.289297 0 0 1 78.289297 78.289297V426.679667a78.289297 78.289297 0 0 1-23.009714 55.438608L566.643269 873.148847a78.289297 78.289297 0 0 1-110.644795-0.085629zM883.873946-49.710703H140.125628a19.572324 19.572324 0 0 0-19.572325 19.572324V403.816746a39.144648 39.144648 0 0 0 11.462043 27.670373L483.754476 783.336344a39.144648 39.144648 0 0 0 55.328514 0L891.94753 431.499352a39.144648 39.144648 0 0 0 11.49874-27.719304V-30.138379a19.572324 19.572324 0 0 0-19.572324-19.572324z"  horiz-adv-x="1024" />

    
    <glyph glyph-name="xuexiao" unicode="&#58894;" d="M980.076524 419.906494a42.555844 42.555844 0 0 0 42.555844-42.555845v-255.335065a42.555844 42.555844 0 1 0-85.111688 0V377.350649a42.555844 42.555844 0 0 0 42.555844 42.555845zM1012.059901 567.256104c-0.771325 0.465455-1.555948 0.91761-2.287377 1.43626L553.361095 884.895584a29.257143 29.257143 0 0 1-3.617246 2.167689 85.111688 85.111688 0 0 1-75.922286 0 30.094961 30.094961 0 0 1-3.603948-2.167689L13.806186 568.692364c-0.744727-0.518649-1.516052-0.970805-2.287376-1.43626a21.277922 21.277922 0 0 1 1.968208-37.342753c0.811221-0.385662 1.622442-0.744727 2.407064-1.183585l462.34265-250.786909a30.440727 30.440727 0 0 1 3.723636-1.728831 85.111688 85.111688 0 0 1 59.657974 0 30.440727 30.440727 0 0 1 3.723637 1.728831l462.32935 250.786909c0.784623 0.438857 1.609143 0.797922 2.420364 1.183585a21.277922 21.277922 0 0 1 1.968208 37.342753zM880.841615 550.233766L528.22655 367.350026a28.339532 28.339532 0 0 0-6.476468-2.486857 42.555844 42.555844 0 0 0-19.948051 0 28.618805 28.618805 0 0 0-6.476468 2.500156L144.000472 550.233766a5.319481 5.319481 0 0 0-0.598441 9.82774L490.684316 799.371636a28.672 28.672 0 0 0 6.064208 3.258182 42.555844 42.555844 0 0 0 30.041766 0 27.621403 27.621403 0 0 0 6.050909-3.244883l348.612156-239.283532a5.319481 5.319481 0 0 0-0.61174-9.867637zM852.236108 300.218182v-343.106494a85.111688 85.111688 0 0 0-85.111688-85.111688h-553.225974a85.111688 85.111688 0 0 0-85.111688 85.111688V300.218182a42.555844 42.555844 0 0 0 85.111688 0v-321.828572a21.277922 21.277922 0 0 1 21.277922-21.277922h510.67013a21.277922 21.277922 0 0 1 21.277922 21.277922V300.218182a42.555844 42.555844 0 0 0 85.111688 0z"  horiz-adv-x="1024" />

    
    <glyph glyph-name="wode" unicode="&#58895;" d="M921.6-87.04a40.96 40.96 0 0 0-40.96-40.96H143.36a40.96 40.96 0 1 0 0 81.92h737.28a40.96 40.96 0 0 0 40.96-40.96zM675.84 465.92a40.96 40.96 0 0 0-40.96-40.96H389.12a40.96 40.96 0 1 0 0 81.92h245.76a40.96 40.96 0 0 0 40.96-40.96zM512 896C274.4704 896 81.92 703.4496 81.92 465.92s192.5504-430.08 430.08-430.08 430.08 192.5504 430.08 430.08S749.5296 896 512 896z m0-778.24C319.7184 117.76 163.84 273.6384 163.84 465.92S319.7824 814.08 512 814.08s348.16-155.8784 348.16-348.16-155.8784-348.16-348.16-348.16z"  horiz-adv-x="1024" />

    
    <glyph glyph-name="zhuanye" unicode="&#58896;" d="M590.769231 580.923077a39.384615 39.384615 0 0 0-39.384616-39.384615H236.307692a39.384615 39.384615 0 1 0 0 78.76923h315.076923a39.384615 39.384615 0 0 0 39.384616-39.384615zM512 382.769231a39.384615 39.384615 0 0 0-39.384615-39.384616H236.307692a39.384615 39.384615 0 1 0 0 78.769231h236.307693a39.384615 39.384615 0 0 0 39.384615-39.384615zM945.230769 620.307692a39.384615 39.384615 0 0 1-39.384615-39.384615v-610.461539a19.692308 19.692308 0 0 0-19.692308-19.692307H177.230769a59.076923 59.076923 0 0 0 0 118.153846h610.461539a39.384615 39.384615 0 0 1 39.384615 39.384615V817.230769a78.769231 78.769231 0 0 1-78.769231 78.769231H118.153846A78.769231 78.769231 0 0 1 39.384615 817.230769v-866.461538a78.769231 78.769231 0 0 1 78.769231-78.769231h787.692308a78.769231 78.769231 0 0 1 78.769231 78.769231V580.923077a39.384615 39.384615 0 0 1-39.384616 39.384615zM118.153846 797.538462a19.692308 19.692308 0 0 0 19.692308 19.692307h590.769231a19.692308 19.692308 0 0 0 19.692307-19.692307v-630.153847a19.692308 19.692308 0 0 0-19.692307-19.692307H137.846154a19.692308 19.692308 0 0 0-19.692308 19.692307z"  horiz-adv-x="1024" />

    
    <glyph glyph-name="shouye1" unicode="&#58897;" d="M958.720933 482.111264L566.642855 873.137342a78.288397 78.288397 0 0 1-110.643524-0.085628L65.193439 482.086799A78.288397 78.288397 0 0 1 42.269618 426.746688v-476.458291a78.288397 78.288397 0 0 1 78.288397-78.288397h782.88397a78.288397 78.288397 0 0 1 78.288397 78.288397V426.673293a78.288397 78.288397 0 0 1-23.009449 55.437971zM746.865191-10.567405a39.144198 39.144198 0 0 0-39.144199-39.144198H316.279008a39.144198 39.144198 0 0 0-39.144199 39.144198v274.00939a39.144198 39.144198 0 0 0 39.144199 39.144198h391.441984a39.144198 39.144198 0 0 0 39.144199-39.144198z"  horiz-adv-x="1024" />

    
    <glyph glyph-name="wode1" unicode="&#58898;" d="M921.6-87.04a40.96 40.96 0 0 0-40.96-40.96H143.36a40.96 40.96 0 1 0 0 81.92h737.28a40.96 40.96 0 0 0 40.96-40.96zM512 896C274.4704 896 81.92 703.4496 81.92 465.92s192.5504-430.08 430.08-430.08 430.08 192.5504 430.08 430.08S749.5296 896 512 896z m151.8464-459.0464A40.832 40.832 0 0 0 634.88 424.96H389.12a40.96 40.96 0 1 0 0 81.92h245.76a40.96 40.96 0 0 0 28.9664-69.9264z"  horiz-adv-x="1024" />

    
    <glyph glyph-name="jianzhang1" unicode="&#58899;" d="M961.55073799 597.2430770000001A78.56 78.56 0 0 1 905.846123 620.307692H758.153815a9.84615399 9.84615399 0 0 0-9.84615299 9.84615399V817.23076899a78.769231 78.769231 0 0 1-78.76923101 78.76923101H118.153815A78.769231 78.769231 0 0 1 39.384585 817.23076899v-866.461538a78.769231 78.769231 0 0 1 78.76923-78.76923099h787.692308a78.769231 78.769231 0 0 1 78.76923098 78.76923099V541.53846201a78.56 78.56 0 0 1-23.06461599 55.70461499zM403.82766201 147.852308h-167.384616a39.38461499 39.38461499 0 1 0 0 78.76923001h167.384616a39.38461499 39.38461499 0 0 0 0-78.76923001z m68.92307601 195.69230699h-236.30769203a39.38461499 39.38461499 0 1 0 0 78.76923102h236.30769203a39.38461499 39.38461499 0 0 0 0-78.76923102z m78.76923099 198.15384702h-315.07692302a39.38461499 39.38461499 0 1 0 2e-8 78.76922999h315.07692298a39.38461499 39.38461499 0 0 0 2e-8-78.76922999z"  horiz-adv-x="1024" />

    
    <glyph glyph-name="zhuanye1" unicode="&#58900;" d="M945.230769 620.307692a39.384615 39.384615 0 0 1-39.384615-39.384615v-610.461539a19.692308 19.692308 0 0 0-19.692308-19.692307H177.230769a59.076923 59.076923 0 0 0 0 118.153846h610.461539a39.384615 39.384615 0 0 1 39.384615 39.384615V817.230769a78.769231 78.769231 0 0 1-78.769231 78.769231H118.153846A78.769231 78.769231 0 0 1 39.384615 817.230769v-866.461538a78.769231 78.769231 0 0 1 78.769231-78.769231h787.692308a78.769231 78.769231 0 0 1 78.769231 78.769231V580.923077a39.384615 39.384615 0 0 1-39.384616 39.384615z m-736.775384-11.532307A39.261538 39.261538 0 0 0 236.307692 620.307692h315.076923a39.384615 39.384615 0 1 0 0-78.76923H236.307692a39.384615 39.384615 0 0 0-27.852307 67.236923z m0-198.153847A39.261538 39.261538 0 0 0 236.307692 422.153846h236.307693a39.384615 39.384615 0 1 0 0-78.769231H236.307692a39.384615 39.384615 0 0 0-27.852307 67.236923z"  horiz-adv-x="1024" />

    
    <glyph glyph-name="xuexiao1" unicode="&#58901;" d="M1022.630234 377.350649v-255.335065a42.555844 42.555844 0 1 0-85.111689 0V377.350649a42.555844 42.555844 0 1 0 85.111689 0zM1010.089558 529.913351c-0.811221-0.385662-1.63574-0.744727-2.420363-1.183585L545.339844 277.942857a30.440727 30.440727 0 0 0-3.723636-1.728831 85.111688 85.111688 0 0 0-59.657974 0 30.440727 30.440727 0 0 0-3.723637 1.728831L15.918545 528.729766c-0.784623 0.438857-1.595844 0.797922-2.407064 1.183585a21.277922 21.277922 0 0 0-1.968208 37.342753c0.771325 0.465455 1.542649 0.91761 2.287376 1.43626L470.242078 884.895584a30.094961 30.094961 0 0 0 3.603948 2.167689 85.111688 85.111688 0 0 0 75.922286 0 29.257143 29.257143 0 0 0 3.617246-2.167689l456.411429-316.20322c0.731429-0.518649 1.516052-0.970805 2.287377-1.43626a21.277922 21.277922 0 0 0-1.994806-37.342753zM852.313766 300.218182v-343.106494a85.111688 85.111688 0 0 0-85.111688-85.111688h-553.225974a85.111688 85.111688 0 0 0-85.111688 85.111688V300.218182a42.476052 42.476052 0 0 0 12.460883 30.094961 1.821922 1.821922 0 0 0 0.226078 0.226078 35.560727 35.560727 0 0 0 42.116987 5.452467l110.193039-61.041039 184.373194-106.057143a31.198753 31.198753 0 0 1 3.710338-1.728831 85.178182 85.178182 0 0 1 59.671273 0 31.384935 31.384935 0 0 1 3.723636 1.728831L716.760104 281.6l75.802597 48.992416c24.190338 17.088831 58.421195 1.156987 59.751065-28.432624-0.013299-0.61174 0-1.289974 0-1.94161z"  horiz-adv-x="1024" />

    
    <glyph glyph-name="baoming" unicode="&#58902;" d="M708.923077 147.69230800000003m-275.692308 0a275.692308 275.692308 0 1 1 551.384616 0 275.692308 275.692308 0 1 1-551.384616 0ZM984.615385 427.913846V-49.23076900000001a78.769231 78.769231 0 0 0-78.769231-78.769231H118.153846a78.769231 78.769231 0 0 0-78.769231 78.769231V817.230769A78.769231 78.769231 0 0 0 118.153846 896h506.683077A34.855385 34.855385 0 0 0 659.692308 861.144615v-9.058461A34.855385 34.855385 0 0 0 624.836923 817.230769H137.846154a19.692308 19.692308 0 0 1-19.692308-19.692307v-827.076924a19.692308 19.692308 0 0 1 19.692308-19.692307h748.307692a19.692308 19.692308 0 0 1 19.692308 19.692307V427.913846A34.855385 34.855385 0 0 0 940.701538 462.769231h9.058462A34.855385 34.855385 0 0 0 984.615385 427.913846zM984.172308 856.172308A39.261538 39.261538 0 0 0 972.64 828.307692L471.384615 327.03999999999996A39.401846 39.401846 0 0 0 415.667692 382.769231L916.923077 884.024615a39.384615 39.384615 0 0 0 67.224615-27.852307z"  horiz-adv-x="1024" />

    
    <glyph glyph-name="xuexiao2" unicode="&#58903;" d="M724.741459 169.89090899999997m-297.890909 0a297.890909 297.890909 0 1 1 595.781818 0 297.890909 297.890909 0 1 1-595.781818 0ZM980.076524 419.906494a42.555844 42.555844 0 0 0 42.555844-42.555845v-255.335065a42.555844 42.555844 0 1 0-85.111688 0V377.350649a42.555844 42.555844 0 0 0 42.555844 42.555845zM1012.059901 567.256104c-0.771325 0.465455-1.555948 0.91761-2.287377 1.43626L553.361095 884.895584a29.257143 29.257143 0 0 1-3.617246 2.167689 85.111688 85.111688 0 0 1-75.922286 0 30.094961 30.094961 0 0 1-3.603948-2.167689L13.806186 568.692364c-0.744727-0.518649-1.516052-0.970805-2.287376-1.43626a21.277922 21.277922 0 0 1 1.968208-37.342753c0.811221-0.385662 1.622442-0.744727 2.407064-1.183585l462.34265-250.786909a30.440727 30.440727 0 0 1 3.723636-1.728831 85.111688 85.111688 0 0 1 59.657974 0 30.440727 30.440727 0 0 1 3.723637 1.728831l462.32935 250.786909c0.784623 0.438857 1.609143 0.797922 2.420364 1.183585a21.277922 21.277922 0 0 1 1.968208 37.342753zM880.841615 550.2337660000001L528.22655 367.35002599999996a28.339532 28.339532 0 0 0-6.476468-2.486857 42.555844 42.555844 0 0 0-19.948051 0 28.618805 28.618805 0 0 0-6.476468 2.500156L144.000472 550.2337660000001a5.319481 5.319481 0 0 0-0.598441 9.82774L490.684316 799.371636a28.672 28.672 0 0 0 6.064208 3.258182 42.555844 42.555844 0 0 0 30.041766 0 27.621403 27.621403 0 0 0 6.050909-3.244883l348.612156-239.283532a5.319481 5.319481 0 0 0-0.61174-9.867637zM852.236108 300.21818199999996v-343.106494a85.111688 85.111688 0 0 0-85.111688-85.111688h-553.225974a85.111688 85.111688 0 0 0-85.111688 85.111688V300.21818199999996a42.555844 42.555844 0 0 0 85.111688 0v-321.828572a21.277922 21.277922 0 0 1 21.277922-21.277922h510.67013a21.277922 21.277922 0 0 1 21.277922 21.277922V300.21818199999996a42.555844 42.555844 0 0 0 85.111688 0z"  horiz-adv-x="1024" />

    
    <glyph glyph-name="zhuanye2" unicode="&#58904;" d="M708.923077 147.69230800000003m-275.692308 0a275.692308 275.692308 0 1 1 551.384616 0 275.692308 275.692308 0 1 1-551.384616 0ZM590.769231 580.9230769999999a39.384615 39.384615 0 0 0-39.384616-39.384615H236.307692a39.384615 39.384615 0 1 0 0 78.76923h315.076923a39.384615 39.384615 0 0 0 39.384616-39.384615zM512 382.769231a39.384615 39.384615 0 0 0-39.384615-39.384616H236.307692a39.384615 39.384615 0 1 0 0 78.769231h236.307693a39.384615 39.384615 0 0 0 39.384615-39.384615zM945.230769 620.307692a39.384615 39.384615 0 0 1-39.384615-39.384615v-610.461539a19.692308 19.692308 0 0 0-19.692308-19.692307H177.230769a59.076923 59.076923 0 0 0 0 118.153846h610.461539a39.384615 39.384615 0 0 1 39.384615 39.384615V817.230769a78.769231 78.769231 0 0 1-78.769231 78.769231H118.153846A78.769231 78.769231 0 0 1 39.384615 817.230769v-866.461538a78.769231 78.769231 0 0 1 78.769231-78.769231h787.692308a78.769231 78.769231 0 0 1 78.769231 78.769231V580.9230769999999a39.384615 39.384615 0 0 1-39.384616 39.384615zM118.153846 797.538462a19.692308 19.692308 0 0 0 19.692308 19.692307h590.769231a19.692308 19.692308 0 0 0 19.692307-19.692307v-630.153847a19.692308 19.692308 0 0 0-19.692307-19.692307H137.846154a19.692308 19.692308 0 0 0-19.692308 19.692307z"  horiz-adv-x="1024" />

    
    <glyph glyph-name="jianzhang2" unicode="&#58905;" d="M708.990769 147.852308m-275.692307 0a275.692308 275.692308 0 1 1 551.384615 0 275.692308 275.692308 0 1 1-551.384615 0ZM196.990769 226.621538m39.384616 0l167.384615 0q39.384615 0 39.384615-39.384615l0 0q0-39.384615-39.384615-39.384615l-167.384615 0q-39.384615 0-39.384616 39.384615l0 0q0 39.384615 39.384616 39.384615ZM196.990769 422.313846m39.384616 0l236.307692 0q39.384615 0 39.384615-39.384615l0 0q0-39.384615-39.384615-39.384616l-236.307692 0q-39.384615 0-39.384616 39.384616l0 0q0 39.384615 39.384616 39.384615ZM196.990769 620.4676919999999m39.384616 0l315.076923 0q39.384615 0 39.384615-39.384615l0 0q0-39.384615-39.384615-39.384615l-315.076923 0q-39.384615 0-39.384616 39.384615l0 0q0 39.384615 39.384616 39.384615ZM905.778462 620.307692H758.086154a9.846154 9.846154 0 0 0-9.846154 9.846154V817.230769a78.769231 78.769231 0 0 1-78.769231 78.769231H118.086154A78.769231 78.769231 0 0 1 39.316923 817.230769v-866.461538a78.769231 78.769231 0 0 1 78.769231-78.769231h787.692308a78.769231 78.769231 0 0 1 78.76923 78.769231V541.538462a78.769231 78.769231 0 0 1-78.76923 78.76923z m0-649.846154a19.692308 19.692308 0 0 0-19.692308-19.692307H137.778462a19.692308 19.692308 0 0 0-19.692308 19.692307V797.538462a19.692308 19.692308 0 0 0 19.692308 19.692307h512a19.692308 19.692308 0 0 0 19.692307-19.692307v-452.923077a39.384615 39.384615 0 0 1 39.384616-39.384616 39.384615 39.384615 0 0 1 39.384615 39.384616V531.692308a9.846154 9.846154 0 0 0 9.846154 9.846154h128a19.692308 19.692308 0 0 0 19.692308-19.692308z"  horiz-adv-x="1024" />

    
    <glyph glyph-name="zixunxinxi" unicode="&#58906;" d="M905.846154 896H118.153846A78.769231 78.769231 0 0 1 39.384615 817.230769v-866.461538a78.769231 78.769231 0 0 1 78.769231-78.769231h787.692308a78.769231 78.769231 0 0 1 78.769231 78.769231V817.230769a78.769231 78.769231 0 0 1-78.769231 78.769231z m0-925.538462a19.692308 19.692308 0 0 0-19.692308-19.692307H137.846154a19.692308 19.692308 0 0 0-19.692308 19.692307V797.538462a19.692308 19.692308 0 0 0 19.692308 19.692307h748.307692a19.692308 19.692308 0 0 0 19.692308-19.692307zM748.307692 305.230769a39.384615 39.384615 0 0 0-39.384615-39.384615H315.076923a39.384615 39.384615 0 1 0 0 78.769231h393.846154a39.384615 39.384615 0 0 0 39.384615-39.384616zM748.307692 108.30769199999997a39.384615 39.384615 0 0 0-39.384615-39.384615H315.076923a39.384615 39.384615 0 1 0 0 78.769231h393.846154a39.384615 39.384615 0 0 0 39.384615-39.384616zM708.923077 699.076923H315.076923a39.384615 39.384615 0 0 1-39.384615-39.384615v-157.538462a39.384615 39.384615 0 0 1 39.384615-39.384615h393.846154a39.384615 39.384615 0 0 1 39.384615 39.384615V659.692308a39.384615 39.384615 0 0 1-39.384615 39.384615z m-39.384615-147.692308a9.846154 9.846154 0 0 0-9.846154-9.846153H364.307692a9.846154 9.846154 0 0 0-9.846154 9.846153v59.076923a9.846154 9.846154 0 0 0 9.846154 9.846154h295.384616a9.846154 9.846154 0 0 0 9.846154-9.846154z"  horiz-adv-x="1024" />

    
    <glyph glyph-name="xuexiaojieshao" unicode="&#58907;" d="M905.846154 896H118.153846A78.769231 78.769231 0 0 1 39.384615 817.230769v-866.461538a78.769231 78.769231 0 0 1 78.769231-78.769231h787.692308a78.769231 78.769231 0 0 1 78.769231 78.769231V817.230769a78.769231 78.769231 0 0 1-78.769231 78.769231z m0-925.538462a19.692308 19.692308 0 0 0-19.692308-19.692307H137.846154a19.692308 19.692308 0 0 0-19.692308 19.692307V797.538462a19.692308 19.692308 0 0 0 19.692308 19.692307h748.307692a19.692308 19.692308 0 0 0 19.692308-19.692307zM748.307692 620.307692a39.384615 39.384615 0 0 0-39.384615-39.384615H315.076923a39.384615 39.384615 0 1 0 0 78.769231h393.846154a39.384615 39.384615 0 0 0 39.384615-39.384616zM748.307692 384a39.384615 39.384615 0 0 0-39.384615-39.384615H315.076923a39.384615 39.384615 0 1 0 0 78.76923h393.846154a39.384615 39.384615 0 0 0 39.384615-39.384615zM748.307692 147.692308a39.384615 39.384615 0 0 0-39.384615-39.384616H315.076923a39.384615 39.384615 0 1 0 0 78.769231h393.846154a39.384615 39.384615 0 0 0 39.384615-39.384615z"  horiz-adv-x="1024" />

    
    <glyph glyph-name="lijibaoming" unicode="&#58908;" d="M984.615385 427.913846V-49.230769a78.769231 78.769231 0 0 0-78.769231-78.769231H118.153846a78.769231 78.769231 0 0 0-78.769231 78.769231V817.230769A78.769231 78.769231 0 0 0 118.153846 896h506.683077A34.855385 34.855385 0 0 0 659.692308 861.144615v-9.058461A34.855385 34.855385 0 0 0 624.836923 817.230769H137.846154a19.692308 19.692308 0 0 1-19.692308-19.692307v-827.076924a19.692308 19.692308 0 0 1 19.692308-19.692307h748.307692a19.692308 19.692308 0 0 1 19.692308 19.692307V427.913846A34.855385 34.855385 0 0 0 940.701538 462.769231h9.058462A34.855385 34.855385 0 0 0 984.615385 427.913846zM984.172308 856.172308A39.261538 39.261538 0 0 0 972.64 828.307692L471.384615 327.04A39.401846 39.401846 0 0 0 415.667692 382.769231L916.923077 884.024615a39.384615 39.384615 0 0 0 67.224615-27.852307z"  horiz-adv-x="1024" />

    
    <glyph glyph-name="baokaochangshi" unicode="&#58909;" d="M905.846154 896H118.153846A78.769231 78.769231 0 0 1 39.384615 817.230769v-866.461538a78.769231 78.769231 0 0 1 78.769231-78.769231h787.692308a78.769231 78.769231 0 0 1 78.769231 78.769231V817.230769a78.769231 78.769231 0 0 1-78.769231 78.769231z m0-925.538462a19.692308 19.692308 0 0 0-19.692308-19.692307H137.846154a19.692308 19.692308 0 0 0-19.692308 19.692307V797.538462a19.692308 19.692308 0 0 0 19.692308 19.692307h748.307692a19.692308 19.692308 0 0 0 19.692308-19.692307zM669.538462 305.230769a39.384615 39.384615 0 0 0-39.384616-39.384615H236.307692a39.384615 39.384615 0 1 0 0 78.769231h393.846154a39.384615 39.384615 0 0 0 39.384616-39.384616zM512 108.307692a39.384615 39.384615 0 0 0-39.384615-39.384615H236.307692a39.384615 39.384615 0 1 0 0 78.769231h236.307693a39.384615 39.384615 0 0 0 39.384615-39.384616zM708.923077 896a39.384615 39.384615 0 0 0 39.384615-39.384615v-236.307693a39.384615 39.384615 0 1 0-78.76923 0V856.615385a39.384615 39.384615 0 0 0 39.384615 39.384615z"  horiz-adv-x="1024" />

    
    <glyph glyph-name="zhaoshengxinxi" unicode="&#58910;" d="M905.846154 896H118.153846A78.769231 78.769231 0 0 1 39.384615 817.230769v-866.461538a78.769231 78.769231 0 0 1 78.769231-78.769231h787.692308a78.769231 78.769231 0 0 1 78.769231 78.769231V817.230769a78.769231 78.769231 0 0 1-78.769231 78.769231z m0-925.538462a19.692308 19.692308 0 0 0-19.692308-19.692307H137.846154a19.692308 19.692308 0 0 0-19.692308 19.692307V797.538462a19.692308 19.692308 0 0 0 19.692308 19.692307h748.307692a19.692308 19.692308 0 0 0 19.692308-19.692307zM748.307692 305.230769a39.384615 39.384615 0 0 0-39.384615-39.384615H315.076923a39.384615 39.384615 0 1 0 0 78.769231h393.846154a39.384615 39.384615 0 0 0 39.384615-39.384616zM748.307692 108.307692a39.384615 39.384615 0 0 0-39.384615-39.384615H315.076923a39.384615 39.384615 0 1 0 0 78.769231h393.846154a39.384615 39.384615 0 0 0 39.384615-39.384616zM748.307692 502.153846v-39.384615a39.384615 39.384615 0 0 0-78.76923 0v39.384615a157.538462 157.538462 0 0 1-158.092308 157.538462C424.369231 659.384615 354.461538 587.507692 354.461538 500.443077V462.769231a39.384615 39.384615 0 0 0-78.76923 0v37.366154c0 130.203077 106.535385 238.56 236.738461 238.326153S748.307692 632.516923 748.307692 502.153846z"  horiz-adv-x="1024" />

    
    <glyph glyph-name="guanyuwomen" unicode="&#58911;" d="M829.32507 597.314445a42.665556 42.665556 0 0 0-42.665556-42.665556h-85.331111a42.665556 42.665556 0 1 0 0 85.331112h85.331111a42.665556 42.665556 0 0 0 42.665556-42.665556zM829.32507 383.986667a42.665556 42.665556 0 0 0-42.665556-42.665556h-85.331111a42.665556 42.665556 0 1 0 0 85.331112h85.331111a42.665556 42.665556 0 0 0 42.665556-42.665556zM829.32507 170.658889a42.665556 42.665556 0 0 0-42.665556-42.665555h-85.331111a42.665556 42.665556 0 1 0 0 85.331111h85.331111a42.665556 42.665556 0 0 0 42.665556-42.665556zM362.670555 341.321111a42.665556 42.665556 0 0 0-42.665555-42.665555h-85.331111a42.665556 42.665556 0 1 0 0 85.331111h85.331111a42.665556 42.665556 0 0 0 42.665555-42.665556zM362.670555 127.993334a42.665556 42.665556 0 0 0-42.665555-42.665556h-85.331111a42.665556 42.665556 0 1 0 0 85.331111h85.331111a42.665556 42.665556 0 0 0 42.665555-42.665555zM938.655556 895.973334H554.665556a85.331111 85.331111 0 0 1-85.331112-85.331111v-191.995a21.332778 21.332778 0 0 0-21.332777-21.332778H85.344444a85.331111 85.331111 0 0 1-85.331111-85.331111v-554.652223a85.331111 85.331111 0 0 1 85.331111-85.331111h853.311112a85.331111 85.331111 0 0 1 85.331111 85.331111v853.311112a85.331111 85.331111 0 0 1-85.331111 85.331111z m-469.321112-917.309445a21.332778 21.332778 0 0 0-21.332777-21.332778H106.677222a21.332778 21.332778 0 0 0-21.332778 21.332778v511.986667a21.332778 21.332778 0 0 0 21.332778 21.332778h341.324445a21.332778 21.332778 0 0 0 21.332777-21.332778z m469.321112 0a21.332778 21.332778 0 0 0-21.332778-21.332778H575.998333a21.332778 21.332778 0 0 0-21.332777 21.332778v810.645556a21.332778 21.332778 0 0 0 21.332777 21.332778h341.324445a21.332778 21.332778 0 0 0 21.332778-21.332778z"  horiz-adv-x="1024" />

    
    <glyph glyph-name="fenxiangyingyong" unicode="&#58913;" d="M938.666667 256v-277.333333a21.333333 21.333333 0 0 0-21.333334-21.333334H106.666667a21.333333 21.333333 0 0 0-21.333334 21.333334V789.333333a21.333333 21.333333 0 0 0 21.333334 21.333334h276.48c23.333333 0 42.986667 18.36 43.506666 41.68A42.666667 42.666667 0 0 1 384 896H85.333333A85.333333 85.333333 0 0 1 0 810.666667v-853.333334a85.333333 85.333333 0 0 1 85.333333-85.333333h853.333334a85.333333 85.333333 0 0 1 85.333333 85.333333V256a42.666667 42.666667 0 0 1-42.666667 42.666667 42.666667 42.666667 0 0 1-42.666666-42.666667zM1016.146667 721.72a102.933333 102.933333 0 0 1-22.346667 33.333333l-120.64 120.4a42.68 42.68 0 0 1-60.333333-60.386666l90.08-89.733334H704a234.666667 234.666667 0 0 1-234.666667-234.666666c0-6.28 0.266667-12.506667 0.746667-18.666667H469.333333v-301.333333a42.666667 42.666667 0 0 1 42.666667-42.666667 42.666667 42.666667 0 0 1 42.666667 42.666667V490.666667a149.333333 149.333333 0 0 0 148 149.333333h200.213333s0.066667 0 0 0l-89.333333-89.84c-16.973333-16.973333-17.333333-45.133333 0-61.72a42.666667 42.666667 0 0 1 59.64 0.653333l120.64 120.4a102.866667 102.866667 0 0 1 22.346666 112.226667z"  horiz-adv-x="1024" />

    
    <glyph glyph-name="jianchagengxin" unicode="&#58914;" d="M705.213333 449.506667l-120.4-120.64a102.88 102.88 0 0 0-145.626666 0l-120.4 120.64a42.68 42.68 0 0 0 60.386666 60.333333L469.333333 419.68V853.333333a42.666667 42.666667 0 0 0 85.333334 0v-433.653333l90.16 90.16a42.68 42.68 0 0 0 60.386666-60.333333zM1024 640v-682.666667a85.333333 85.333333 0 0 0-85.333333-85.333333H85.333333a85.333333 85.333333 0 0 0-85.333333 85.333333V640a85.333333 85.333333 0 0 0 85.333333 85.333333h128a42.666667 42.666667 0 0 0 0-85.333333H106.666667a21.333333 21.333333 0 0 1-21.333334-21.333333v-640a21.333333 21.333333 0 0 1 21.333334-21.333334h810.666666a21.333333 21.333333 0 0 1 21.333334 21.333334V618.666667a21.333333 21.333333 0 0 1-21.333334 21.333333h-106.666666a42.666667 42.666667 0 0 0 0 85.333333h128a85.333333 85.333333 0 0 0 85.333333-85.333333z"  horiz-adv-x="1024" />

    
    <glyph glyph-name="qinglihuancun" unicode="&#58915;" d="M810.666667 426.666667v-298.666667a42.666667 42.666667 0 1 0-85.333334 0V426.666667a42.666667 42.666667 0 1 0 85.333334 0zM554.666667 426.666667v-298.666667a42.666667 42.666667 0 1 0-85.333334 0V426.666667a42.666667 42.666667 0 1 0 85.333334 0zM298.666667 426.666667v-298.666667a42.666667 42.666667 0 1 0-85.333334 0V426.666667a42.666667 42.666667 0 1 0 85.333334 0zM1011.506667 712.84A42.533333 42.533333 0 0 1 981.333333 725.333333h-128V810.666667a85.333333 85.333333 0 0 1-85.333333 85.333333H256a85.333333 85.333333 0 0 1-85.333333-85.333333v-85.333334H42.666667a42.666667 42.666667 0 1 1 0-85.333333h938.666666a42.666667 42.666667 0 0 1 30.173334 72.84zM768 746.666667a21.333333 21.333333 0 0 0-21.333333-21.333334H277.333333a21.333333 21.333333 0 0 0-21.333333 21.333334V789.333333a21.333333 21.333333 0 0 0 21.333333 21.333334h469.333334a21.333333 21.333333 0 0 0 21.333333-21.333334zM1024 512v-554.666667a85.333333 85.333333 0 0 0-85.333333-85.333333H85.333333a85.333333 85.333333 0 0 0-85.333333 85.333333V512a42.666667 42.666667 0 0 0 85.333333 0v-533.333333a21.333333 21.333333 0 0 1 21.333334-21.333334h810.666666a21.333333 21.333333 0 0 1 21.333334 21.333334V512a42.666667 42.666667 0 0 0 85.333333 0z"  horiz-adv-x="1024" />

    
    <glyph glyph-name="yingyongpingfen" unicode="&#58916;" d="M993.225262 536.588312l-307.868536 47.03685L549.49732 873.158141c-14.30099 30.451674-57.626038 30.451674-71.927028 0L341.636402 583.625162l-307.868537-47.03685c-31.966189-4.878723-45.013359-43.858852-22.432195-67.035891l224.086087-229.647583-52.474206-321.685379c-5.338043-32.73586 29.408894-57.20396 58.420537-41.177417l272.128476 150.433506 272.128475-150.433506c29.011644-16.026544 63.758581 8.441557 58.420538 41.177417l-52.474206 321.685379 224.086087 229.659997c22.581164 23.164625 9.533993 62.144754-22.432196 67.023477z m-122.464641-80.852733L712.878683 293.918386a39.724972 39.724972 0 0 1-10.775398-34.138648l37.242161-228.319279a9.931243 9.931243 0 0 0-14.598927-10.278837l-192.033 106.140161a39.824285 39.824285 0 0 1-38.483567 0l-191.983343-106.152575a9.931243 9.931243 0 0 0-14.598928 10.278837l37.242162 228.319279a39.724972 39.724972 0 0 1-10.775399 34.138648L156.232507 455.735579a9.931243 9.931243 0 0 0 5.598738 16.746558l216.141093 33.00897a39.724972 39.724972 0 0 1 30.004768 22.407367l96.581339 205.750529a9.931243 9.931243 0 0 0 17.97555 0l96.482027-205.750529a39.724972 39.724972 0 0 1 29.955112-22.407367l216.141092-33.00897a9.931243 9.931243 0 0 0 5.648395-16.746558z"  horiz-adv-x="1026" />

    
    <glyph glyph-name="kefudianhua" unicode="&#58912;" d="M128 128a128 128 0 1 1 128-128 128 128 0 0 1-128 128z m0-170.666667a42.666667 42.666667 0 1 0 42.666667 42.666667 42.666667 42.666667 0 0 0-42.666667-42.666667zM896 128a128 128 0 1 1 128-128 128 128 0 0 1-128 128z m0-170.666667a42.666667 42.666667 0 1 0 42.666667 42.666667 42.666667 42.666667 0 0 0-42.666667-42.666667zM1024 384v-384h-85.333333V384A426.666667 426.666667 0 0 1 512 810.666667C276.36 810.666667 85.333333 619.64 85.333333 384v-384H0V384A512 512 0 0 0 512 896c282.773333 0 512-229.226667 512-512z"  horiz-adv-x="1024" />

    
    <glyph glyph-name="wentifankui" unicode="&#58917;" d="M512 896C229.226667 896 0 666.773333 0 384s229.226667-512 512-512 512 229.226667 512 512S794.773333 896 512 896z m0-938.666667C276.36-42.666667 85.333333 148.36 85.333333 384S276.36 810.666667 512 810.666667s426.666667-191.026667 426.666667-426.666667-191.026667-426.666667-426.666667-426.666667zM512 85.333333m-42.666667 0a42.666667 42.666667 0 1 1 85.333334 0 42.666667 42.666667 0 1 1-85.333334 0ZM682.066667 540.266667a170.8 170.8 0 0 0-119.933334-148.786667A10.666667 10.666667 0 0 1 554.666667 381.333333v-168a42.666667 42.666667 0 0 0-85.333334 0V426.666667a42.666667 42.666667 0 0 0 42.666667 42.666666 85.333333 85.333333 0 1 1-80.506667 113.693334A42.053333 42.053333 0 0 0 392 554.666667h-1.906667c-28.506667 0-48.826667 28-39.64 54.986666a170.773333 170.773333 0 0 0 151.733334 115.4C605.333333 730.946667 690.666667 643.253333 682.066667 540.266667z"  horiz-adv-x="1024" />

    
    <glyph glyph-name="qianming" unicode="&#58919;" d="M1024 384.226667v-0.306667C1024 69.333333 740.266667-178.893333 414.786667-119.04 226.986667-84.52 43.48 98.986667 8.96 286.786667-50.893333 612.266667 197.333333 896 511.92 896h0.306667a42.666667 42.666667 0 0 0 0-85.333333H512C256.133333 810.666667 52.866667 585.44 89.653333 322.426667c26.133333-186.906667 173.866667-334.666667 360.773334-360.773334C713.44-75.133333 938.666667 128.133333 938.666667 384v0.226667a42.666667 42.666667 0 0 0 85.333333 0zM993.826667 805.493333L631.786667 443.453333a42.666667 42.666667 0 0 0-60.333334 60.333334L933.493333 865.826667a42.666667 42.666667 0 0 0 60.333334-60.333334z"  horiz-adv-x="1024" />

    
    <glyph glyph-name="shoujirenzheng" unicode="&#58920;" d="M768 896H256A85.333333 85.333333 0 0 1 170.666667 810.666667v-853.333334a85.333333 85.333333 0 0 1 85.333333-85.333333h512a85.333333 85.333333 0 0 1 85.333333 85.333333V810.666667a85.333333 85.333333 0 0 1-85.333333 85.333333z m0-917.333333a21.333333 21.333333 0 0 0-21.333333-21.333334H277.333333a21.333333 21.333333 0 0 0-21.333333 21.333334V789.333333a21.333333 21.333333 0 0 0 21.333333 21.333334h469.333334a21.333333 21.333333 0 0 0 21.333333-21.333334zM512 298.666667a128 128 0 1 1 128-128 128 128 0 0 1-128 128z m0-170.666667a42.666667 42.666667 0 1 0 42.666667 42.666667 42.666667 42.666667 0 0 0-42.666667-42.666667zM682.666667 682.666667a42.666667 42.666667 0 0 0-42.666667-42.666667H384a42.666667 42.666667 0 1 0 0 85.333333h256a42.666667 42.666667 0 0 0 42.666667-42.666666z"  horiz-adv-x="1024" />

    
    <glyph glyph-name="nicheng" unicode="&#58921;" d="M510.797206 896c-141.36149 0-256.051-114.68951-256.051-256.051s114.68951-256.051 256.051-256.051 256.051 114.68951 256.051 256.051-114.636167 256.051-256.051 256.051z m0.226712-426.524955a170.700667 170.700667 0 1 0 170.700667 170.700667 170.700667 170.700667 0 0 0-170.700667-170.700667zM1023.125918-85.302122a42.675167 42.675167 0 0 0-42.675166-42.675167h-341.401334a42.675167 42.675167 0 1 0 0 85.350334h341.401334a42.675167 42.675167 0 0 0 42.675166-42.675167zM1023.125918 42.723378a42.675167 42.675167 0 0 0-42.675166-42.675167h-256.051001a42.675167 42.675167 0 1 0 0 85.350334h256.051001a42.675167 42.675167 0 0 0 42.675166-42.675167zM1023.125918 170.748878a42.675167 42.675167 0 0 0-42.675166-42.675167h-170.700667a42.675167 42.675167 0 1 0 0 85.350334h170.700667a42.675167 42.675167 0 0 0 42.675166-42.675167zM767.074918 289.439185a42.675167 42.675167 0 0 0-67.240059-34.886948 424.724597 424.724597 0 0 1-188.810941 44.008765c-222.577666-0.013336-405.414084-170.487291-425.004652-387.863921a42.275087 42.275087 0 0 0-13.749406-27.56549A42.675167 42.675167 0 0 0 1.04234-81.301325C24.767065 179.577303 244.037406 383.898 511.023918 383.898a509.87489 509.87489 0 0 0 232.592994-55.784445 42.955222 42.955222 0 0 0 22.777871-30.672776h-0.080016a42.675167 42.675167 0 0 0 0.760151-8.001594z"  horiz-adv-x="1024" />

    
    <glyph glyph-name="touxiang" unicode="&#58922;" d="M938.666667 896H85.333333A85.333333 85.333333 0 0 1 0 810.666667v-853.333334a85.333333 85.333333 0 0 1 85.333333-85.333333h853.333334a85.333333 85.333333 0 0 1 85.333333 85.333333V810.666667a85.333333 85.333333 0 0 1-85.333333 85.333333z m0-917.333333a21.333333 21.333333 0 0 0-21.333334-21.333334H106.666667a21.333333 21.333333 0 0 0-21.333334 21.333334V789.333333a21.333333 21.333333 0 0 0 21.333334 21.333334h810.666666a21.333333 21.333333 0 0 0 21.333334-21.333334zM796 206.013333a42.666667 42.666667 0 0 0-72.84-30.173333l-90.506667 90.506667-211.133333-211.186667a42.666667 42.666667 0 0 0-60.346667 0l-120.68 120.68a42.672 42.672 0 0 0 60.346667 60.346667l90.506667-90.52 211.186666 211.2a42.666667 42.666667 0 0 0 60.346667 0l120.68-120.68a42.533333 42.533333 0 0 0 12.44-30.173334zM725.333333 597.333333m-85.333333 0a85.333333 85.333333 0 1 1 170.666667 0 85.333333 85.333333 0 1 1-170.666667 0ZM298.666667 512m-42.666667 0a42.666667 42.666667 0 1 1 85.333333 0 42.666667 42.666667 0 1 1-85.333333 0Z"  horiz-adv-x="1024" />

    
    <glyph glyph-name="yonghuming" unicode="&#58923;" d="M512 896C229.24 896 0 666.773333 0 384s229.24-512 512-512 512 229.24 512 512S794.773333 896 512 896z m0-938.666667C276.36-42.666667 85.333333 148.36 85.333333 384S276.36 810.666667 512 810.666667s426.666667-191.026667 426.666667-426.666667-191.026667-426.666667-426.666667-426.666667zM512 725.333333c-141.333333 0-256-114.666667-256-256s114.666667-256 256-256 256 114.666667 256 256-114.613333 256-256 256z m0.226667-426.44a170.666667 170.666667 0 1 0 170.666666 170.666667 170.666667 170.666667 0 0 0-170.666666-170.666667zM825.093333 94.173333a429.173333 429.173333 0 0 0-68.6-59.786666 256.093333 256.093333 0 0 1-488.533333 0 429.173333 429.173333 0 0 0-68.6 59.786666c52.693333 120.493333 172.933333 204.72 312.866667 204.72S772.4 214.666667 825.093333 94.173333z"  horiz-adv-x="1024" />

    
    <glyph glyph-name="xingbie" unicode="&#58924;" d="M436.995393 821.009519A255.136192 255.136192 0 0 1 255.98949 895.993107C114.661959 895.993107 0 781.331148 0 640.003617A255.98949 255.98949 0 1 1 436.995393 821.009519zM256.65613 470.677235h-1.333279a169.993021 169.993021 0 1 0 0 339.986042h1.333279a169.993021 169.993021 0 0 0 0-339.986042zM948.974373 309.030538A255.136192 255.136192 0 0 1 767.968471 384.014126c-141.327531 0-255.98949-114.661959-255.98949-255.98949a255.98949 255.98949 0 1 1 436.995392 181.005902zM768.635111-41.301746h-1.333279a169.993021 169.993021 0 1 0 0 339.986042h1.333279a169.993021 169.993021 0 0 0 0-339.986042zM298.654406 426.679041v-511.978981a42.664915 42.664915 0 0 0-85.329831 0V426.679041a42.664915 42.664915 0 1 0 85.329831 0zM810.633386 853.328192v-511.978981a42.664915 42.664915 0 0 0-85.32983 0V853.328192a42.664915 42.664915 0 1 0 85.32983 0zM426.649151 170.689551a42.664915 42.664915 0 0 0-42.664915-42.664915H127.994745a42.664915 42.664915 0 1 0 0 85.32983h255.989491a42.664915 42.664915 0 0 0 42.664915-42.664915zM931.308432 732.653146a42.664915 42.664915 0 0 0-72.83701-30.172094L767.968471 792.997335l-90.502951-90.516283a42.670248 42.670248 0 0 0-60.344189 60.344189l120.675046 120.675046a42.664915 42.664915 0 0 0 60.344189 0l120.675046-120.675046a42.584918 42.584918 0 0 0 12.49282-30.172095z"  horiz-adv-x="1024" />

    
    <glyph glyph-name="xiugaimima" unicode="&#58925;" d="M938.666667 469.333333H85.333333a85.333333 85.333333 0 0 1-85.333333-85.333333v-426.666667a85.333333 85.333333 0 0 1 85.333333-85.333333h853.333334a85.333333 85.333333 0 0 1 85.333333 85.333333V384a85.333333 85.333333 0 0 1-85.333333 85.333333z m0-490.666666a21.333333 21.333333 0 0 0-21.333334-21.333334H106.666667a21.333333 21.333333 0 0 0-21.333334 21.333334V362.666667a21.333333 21.333333 0 0 0 21.333334 21.333333h810.666666a21.333333 21.333333 0 0 0 21.333334-21.333333zM938.666667 469.333333h-85.333334c0 188.506667-152.826667 341.333333-341.333333 341.333334-155.813333 0-288.613333-104.413333-329.573333-247.08a85.466667 85.466667 0 0 1-2.666667-13.813334A42.666667 42.666667 0 0 0 94.666667 554.666667a26.373333 26.373333 0 0 0 0.333333 5.226666 42.066667 42.066667 0 0 0 1.333333 6.773334c0.32 1.093333 0.653333 2.186667 0.92 3.293333C142.533333 757.026667 311.026667 896 512 896c235.64 0 426.666667-191.026667 426.666667-426.666667zM682.666667 170.666667a42.786667 42.786667 0 0 0-42.666667-42.666667H384a42.666667 42.666667 0 0 0 0 85.333333h256a42.786667 42.786667 0 0 0 42.666667-42.666666z"  horiz-adv-x="1024" />

    
    <glyph glyph-name="caidan" unicode="&#58918;" d="M597.335413 810.665624A85.334376 85.334376 0 1 0 512.001037 896a85.334376 85.334376 0 0 0 85.334376-85.334376M597.335413 384.008745a85.334376 85.334376 0 1 0-85.334376 85.334376 85.334376 85.334376 0 0 0 85.334376-85.334376M597.335413-42.648134a85.334376 85.334376 0 1 0-85.334376 85.319376 85.334376 85.334376 0 0 0 85.334376-85.319376"  horiz-adv-x="1024" />

    
    <glyph glyph-name="guanbi" unicode="&#58926;" d="M584.46971123 384.03295547l362.51332734 362.44741641a51.26597578 51.26597578 0 0 1-72.50266581 72.50266494l-362.51332735-362.44741553L149.51962988 818.96985498a51.26597578 51.26597578 0 0 1-72.50266582-72.50266582l362.44741641-362.43423369-362.4342337-362.51332734a51.26597578 51.26597578 0 0 1 72.50266583-72.50266495l362.43423281 362.51332734 362.51332735-362.51332734a51.26597578 51.26597578 0 0 1 72.50266581 72.50266494z"  horiz-adv-x="1024" />

    
    <glyph glyph-name="fanhui" unicode="&#58927;" d="M344.669855 384.0075L779.74273 815.810392a46.739772 46.739772 0 0 1 0 66.434675 47.594768 47.594768 0 0 1-66.944673 0l-468.537712-464.997729a46.709772 46.709772 0 0 1 0-66.419676l468.537712-464.99773a47.594768 47.594768 0 0 1 66.944673 0 46.739772 46.739772 0 0 1 0 66.434676z"  horiz-adv-x="1024" />

    
    <glyph glyph-name="sousuo" unicode="&#58928;" d="M472.62218 896C211.599372 896 0.004338 684.404966 0.004338 423.382158s211.595034-472.581842 472.617842-472.581842 472.581842 211.559034 472.581842 472.581842S733.644988 896 472.62218 896m0-866.456043c-217.511007 0-393.814202 176.327195-393.814202 393.838201S255.111173 817.19636 472.62218 817.19636s393.838202-176.399194 393.838201-393.850202-176.327195-393.838202-393.838201-393.838201M1012.475715-116.471377a39.40782 39.40782 0 0 0-55.703746 0l-139.199364 139.199365a39.38382 39.38382 0 0 0 55.631746 55.751745l139.199364-139.199364a39.40782 39.40782 0 0 0 0-55.703746"  horiz-adv-x="1024" />

    
    <glyph glyph-name="yueduliang" unicode="&#58929;" d="M647.00479883 654.0027421899999c-149.12021425 0-269.99588672-120.88938339-269.99588672-270.00959766s120.93051621-269.99588672 269.99588672-269.99588672 270.10557422 120.83453965 270.10557422 269.99588672-120.93051621 270.00959766-270.10557422 270.00959766m0-450.00685547a180.01096875 180.01096875 0 1 0 180.05210156 179.99725781 179.99725781 179.99725781 0 0 0-180.05210156-179.99725781M647.00479883 834C323.92014102 834 62 632.53140527 62 383.99314453s261.8790082-449.99314453 585.00479883-449.99314453 585.00479883 201.46859473 585.00479883 449.99314453S970.08945664 834 647.00479883 834m0-810.00137109c-273.36877823 0-494.96503711 161.18584453-494.96503711 359.99451562s221.59625801 360.00822656 494.96503711 360.00822656 494.96503711-161.18584453 494.96503711-360.00822656-221.59625801-359.99451562-494.96503711-359.99451562"  horiz-adv-x="1331" />

    
    <glyph glyph-name="dianzan-moren" unicode="&#58930;" d="M198.63187 422.098809h-70.269804a48.886472 48.886472 0 0 1-49.090466-48.694478v-380.820099a48.898472 48.898472 0 0 1 49.090466-48.706478h70.269804z m274.311427 333.661573c0-139.19565-42.742664-233.332708-115.364394-287.631011a237.160589 237.160589 0 0 0-81.909441-39.598763l-4.619855-1.199962v-474.825162a8.687729 8.687729 0 0 1 8.795725-8.62773h403.691384c57.28621 0 129.427955 42.706665 156.439112 92.613106a36.226868 36.226868 0 0 0 2.615918 4.127871c1.90794 2.615918 6.899784 10.955658 14.591544 26.399175 13.595575 27.335146 29.171088 64.605981 46.39055 113.204462 16.95547 47.866504 28.055123 91.761132 34.390926 130.591919 2.195931 13.415581 3.599888 25.199213 4.499859 35.182901 0.491985 5.711822 0.671979 9.383707 0.695978 10.883659a39.598763 39.598763 0 0 0 0.33599 4.283867c9.695697 70.4138-41.002719 127.064029-113.720447 127.064029H657.161541c-24.827224 0-42.286679 24.239243-34.24693 47.554514 23.207275 67.341896 20.627355 59.578138 24.671229 76.173619 5.171838 21.167339 7.36777 41.854692 7.36777 72.393738 0 83.409393-40.438736 132.559858-93.513078 138.847661-52.198369 6.239805-88.497234-18.335427-88.497235-67.437893z m97.088966 138.835662c90.813162-10.799663 157.339083-91.605137 157.339084-210.197431 0-35.998875-2.795913-62.254055-9.395707-89.30121-3.311897-13.535577-3.011906-13.799569-10.199681-34.966907h122.000187c115.616387 0 200.105747-93.597075 185.742196-206.561545-0.347989-11.20765-2.039936-29.579076-6.07181-54.214306-7.019781-42.982657-19.1994-90.993156-37.546827-142.963532-18.155433-51.2144-34.798913-91.137152-49.786444-121.196213-8.399738-16.883472-14.927534-28.103122-19.391394-34.642917-40.282741-72.32174-135.99175-128.551983-219.185151-128.551983H279.845332a85.353333 85.353333 0 0 0-8.807725 0.467985v-0.467985h-142.675541C61.260163-128 6.853863-74.001687 6.853863-7.439768V373.404331c0 66.57392 54.4063 120.548233 121.508203 120.548233h105.92069c3.695885 0.107997 11.819631 1.199963 22.799287 4.043874a164.850848 164.850848 0 0 1 56.890222 27.51514c53.566326 40.054748 86.529296 112.64048 86.529296 230.248804 0.023999 96.980969 77.961564 149.683322 169.530702 138.835662z"  horiz-adv-x="1024" />

    
    <glyph glyph-name="shoucang-xuanzhong" unicode="&#58931;" d="M620.228503 845.252899l120.158371-204.52091a17.119204 17.119204 0 0 1 11.05148-8.048767l231.283682-51.544502a102.889654 102.889654 0 0 0 54.821322-168.426053L880.380595 234.381399a17.156582 17.156582 0 0 1-4.211274-12.970227l22.638714-236.728436a102.814898 102.814898 0 0 0-143.395135-104.098215l-217.291786 94.691374a16.309343 16.309343 0 0 1-13.057442 0l-217.279327-94.691374a102.839817 102.839817 0 0 0-143.407594 104.098215l22.638714 236.728436a17.156582 17.156582 0 0 1-4.211275 12.970227L25.753562 412.712667a102.877195 102.877195 0 0 0 54.821322 168.426053l231.184007 51.556962a17.119204 17.119204 0 0 1 11.039021 8.048767l120.158371 204.50845a102.802438 102.802438 0 0 0 177.27222 0z"  horiz-adv-x="1063" />

    
    <glyph glyph-name="dianzan-xuanzhong" unicode="&#58932;" d="M570.059286 894.595995c90.816353-10.800042 157.344611-91.608356 157.344611-210.192817 0-36.00014-2.808011-62.256242-9.408037-89.304346-3.300013-13.536053-3.000012-13.800054-10.18804-34.968136h122.004474c115.608449 0 200.100777-93.600363 185.748721-206.568802-0.348001-11.220044-2.040008-29.580115-6.072023-54.216211-7.032027-42.984167-19.140074-90.996353-37.560146-142.968555-18.14407-51.216199-34.800135-91.200354-49.776193-121.20047-8.400033-16.884066-14.928058-28.104109-19.404076-34.644135-40.272156-72.300281-135.996528-128.532499-219.192851-128.532499H279.862159a82.116319 82.116319 0 0 0-8.808034 0.468002v-0.468002H128.349571c-67.104261 0-121.500472 54.00021-121.500472 120.552468V373.349971c0 66.588259 54.396211 120.564468 121.500472 120.564468h105.936411c3.684014 0.108 11.808046 1.200005 22.800088 4.044015a164.70064 164.70064 0 0 1 56.904221 27.516107c53.568208 40.056156 86.532336 112.632437 86.532336 230.256894 0.024 97.020377 77.964303 149.724581 169.536659 138.86454z"  horiz-adv-x="1024" />

    
    <glyph glyph-name="fenxiang" unicode="&#58933;" d="M515.256977 186.882011c-126.533489-10.260171-224.534916-63.538109-302.739641-148.604485-36.634236-39.81308-52.450922-63.318433-93.633748-131.430976-39.334961-63.899929-118.883588-33.184028-118.883588 37.693851 0 134.687352 5.776192 213.564028 31.25863 308.19278 31.426618 116.699748 88.42613 213.486496 176.891026 284.971714 92.044326 79.212652 196.648961 119.594305 307.107321 132.516434V786.598024a111.130311 111.130311 0 0 0 26.374066 72.027948 104.746779 104.746779 0 0 0 150.439427 10.337703l364.106833-326.929867a138.331392 138.331392 0 0 0 12.80583-13.154727c49.543443-58.149581 43.806018-146.368957-12.80583-197.204613l-364.106833-326.929868a105.082754 105.082754 0 0 0-70.205927-27.058938c-58.87322 0-106.607565 48.974869-106.607566 109.385823z m-440.437849-214.507344c7.456069 12.159724 14.56324 23.259832 22.096841 34.463318a681.267571 681.267571 0 0 0 63.925772 81.538635c97.988505 106.517111 224.845047 170.442883 389.382518 173.156531 19.84839 0.323053 36.104429-16.100973 36.104429-36.466249v-137.982495c0-20.132677 15.907141-36.466248 35.535855-36.466248a35.01897 35.01897 0 0 1 23.401976 9.04549l364.106833 326.929868c27.136471 24.306525 29.811352 66.536043 6.125089 94.331542a65.48935 65.48935 0 0 1-6.125089 6.293077l-364.106833 326.929867a34.889749 34.889749 0 0 1-50.137861-3.437286 36.970211 36.970211 0 0 1-8.79997-24.009316V636.895158c0-19.202284-14.511551-35.109425-33.184028-36.375794-108.739717-7.378536-210.940836-42.643026-300.168138-119.387551-76.47316-61.858232-125.590173-145.205965-153.217685-247.768904-21.96762-81.409414-28.002254-151.744563-28.635438-267.009954 1.253447 2.067541 2.468127 4.044626 3.695729 6.047556z m-2.713647-31.491229a2.506893 2.506893 0 0 1 0.219676-0.529807 0.78825 0.78825 0 0 1-0.090455 0.129221z"  horiz-adv-x="1102" />

    
    <glyph glyph-name="shoucang-moren" unicode="&#58934;" d="M620.228503 845.252899l120.158371-204.52091a17.119204 17.119204 0 0 1 11.05148-8.048767l231.283682-51.544502a102.889654 102.889654 0 0 0 54.821322-168.426053L880.380595 234.381399a17.156582 17.156582 0 0 1-4.211274-12.970227l22.638714-236.728436a102.814898 102.814898 0 0 0-143.395135-104.098215l-217.291786 94.691374a16.309343 16.309343 0 0 1-13.057442 0l-217.279327-94.691374a102.839817 102.839817 0 0 0-143.407594 104.098215l22.638714 236.728436a17.156582 17.156582 0 0 1-4.211275 12.970227L25.753562 412.712667a102.877195 102.877195 0 0 0 54.821322 168.426053l231.184007 51.556962a17.119204 17.119204 0 0 1 11.039021 8.048767l120.158371 204.50845a102.802438 102.802438 0 0 0 177.27222 0z m-59.094893-34.749243a34.250867 34.250867 0 0 1-59.082434 0l-120.158371-204.520909a85.633397 85.633397 0 0 0-55.232482-40.231375L95.364182 514.20687a34.288245 34.288245 0 0 1-18.253009-56.142018l157.112926-178.343728a85.757991 85.757991 0 0 0 21.018993-64.788835l-22.663633-236.778274a34.288245 34.288245 0 0 1 47.806685-34.699405l217.279326 94.691374a84.910752 84.910752 0 0 0 67.816468 0l217.266867-94.691374a34.263326 34.263326 0 0 1 47.881441 34.699405l-22.638714 236.728436a85.757991 85.757991 0 0 0 21.018993 64.788835l157.075547 178.393566a34.300704 34.300704 0 0 1-18.265468 56.142018l-231.296141 51.544502a85.608478 85.608478 0 0 0-55.220023 40.231375z"  horiz-adv-x="1063" />

    
    <glyph glyph-name="baokaotiaojian" unicode="&#58935;" d="M851.682623-42.602717a64.66548 64.66548 0 0 1 64.509602 64.749415V210.351663c0 7.889836-5.275878 15.216112-14.02904 18.561499a166.669789 166.669789 0 0 0 0 311.037002c8.741171 3.333396 14.017049 10.671663 14.017049 18.561499V746.237002a64.66548 64.66548 0 0 1-64.509602 64.809368H172.269415a64.66548 64.66548 0 0 1-64.509602-64.809368v-187.725339c0-7.889836 5.275878-15.228103 14.029039-18.561499a166.669789 166.669789 0 0 0 0-311.037002c-8.741171-3.345386-14.017049-10.671663-14.017049-18.561499v-188.145012a64.66548 64.66548 0 0 1 64.509602-64.749414zM172.269415-128C91.164778-128 22.75822-59.281686 22.75822 22.206651V210.351663c0 40.912037 24.508852 76.99185 61.451991 93.526932l5.635597 2.338173a83.790539 83.790539 0 0 1 5.251897 154.16356L89.905761 462.622576c-40.072693 15.300047-67.147541 52.926651-67.147541 95.925059V746.237002C22.75822 827.773302 91.164778 896 172.269415 896h679.413208C932.847213 896 1001.193817 827.72534 1001.193817 746.237002v-187.725339c0-40.924028-24.508852-76.99185-61.45199-93.526932l-5.635597-2.338174A83.790539 83.790539 0 0 1 928.854333 308.459016l5.239906-2.218267c40.072693-15.300047 67.147541-52.926651 67.147541-95.925058v-188.10904c0-81.5363-68.346604-150.206651-149.511195-150.206651zM597.241405 469.313349H426.710632a42.638689 42.638689 0 1 0 0 85.265386h170.530773a42.638689 42.638689 0 1 0 0-85.265386M597.241405 213.505199H426.710632a42.638689 42.638689 0 1 0 0 85.265386h170.530773a42.638689 42.638689 0 1 0 0-85.265386"  horiz-adv-x="1024" />

    
    <glyph glyph-name="kaoshikemu" unicode="&#58936;" d="M911.913846 896L512 856.615385 112.086154 896C71.938462 896 39.384615 860.726154 39.384615 817.230769v-827.076923c0-43.507692 32.553846-78.769231 72.701539-78.769231L512-128l399.913846 39.384615c40.147692 0 72.701538 35.261538 72.701539 78.769231V817.230769c0 43.495385-32.553846 78.769231-72.701539 78.769231zM475.643077-50.461538l-354.461539 39.384615c-5.021538 0-9.095385 4.418462-9.095384 9.846154V808.615385c0 5.44 4.073846 9.846154 9.095384 9.846153l354.461539-39.384615z m436.270769 49.230769c0-5.427692-4.073846-9.846154-9.095384-9.846154l-354.461539-39.384615V779.076923l354.461539 39.384615c5.021538 0 9.095385-4.406154 9.095384-9.846153z"  horiz-adv-x="1024" />

    
    <glyph glyph-name="chakangengduo" unicode="&#58937;" d="M787.676628 896C657.158595 896 551.353255 790.206651 551.353255 659.688618s105.80534-236.299391 236.323373-236.299391S1024 529.182576 1024 659.688618 918.19466 896 787.676628 896m0-393.844309A157.544918 157.544918 0 1 0 945.221546 659.688618a157.544918 157.544918 0 0 0-157.544918-157.532927M787.676628 344.610773c-130.518033 0-236.323372-105.793349-236.323373-236.299391S657.158595-128 787.676628-128 1024-22.206651 1024 108.311382s-105.80534 236.299391-236.323372 236.299391m0-393.844309A157.544918 157.544918 0 1 0 945.221546 108.311382a157.556909 157.556909 0 0 0-157.544918-157.544918M236.323372 344.610773C105.80534 344.610773 0 238.817424 0 108.311382S105.80534-128 236.323372-128s236.323372 105.793349 236.323373 236.311382-105.80534 236.299391-236.323373 236.299391m0-393.844309a157.544918 157.544918 0 1 0 157.544918 157.544918 157.556909 157.556909 0 0 0-157.544918-157.544918M236.323372 896C105.80534 896 0 790.206651 0 659.688618s105.80534-236.299391 236.323372-236.299391 236.323372 105.793349 236.323373 236.299391S366.841405 896 236.323372 896m0-393.844309a157.544918 157.544918 0 1 0 157.544918 157.532927 157.544918 157.544918 0 0 0-157.544918-157.532927"  horiz-adv-x="1024" />

    
    <glyph glyph-name="baokaoliucheng" unicode="&#58938;" d="M937.762712 491.355225C898.465725 647.480474 775.489811 770.34212 619.307428 809.501984a109.697898 109.697898 0 0 1-214.447965-0.068561C248.837057 770.239278 126.021118 647.446193 86.712704 491.492348a109.697898 109.697898 0 0 1-0.148549-214.493672C125.666885 120.793439 248.574239-2.216756 404.722341-41.52517a109.697898 109.697898 0 0 1 214.39083-0.148549c156.479481 39.159864 279.649653 162.330036 318.809517 318.809517a109.697898 109.697898 0 0 1-0.148549 214.230854M510.340849 822.802855H513.803189c0.58277 0 1.142686-0.068561 1.679749-0.114269a36.565966 36.565966 0 1 0-5.142089 0.114269M109.852105 347.445295a36.565966 36.565966 0 0 0-36.40599 33.137907v-1.016991a35.708951 35.708951 0 0 0-0.319952 4.719295 38.462826 38.462826 0 0 0 0.319952 4.753576v-1.622615a36.565966 36.565966 0 1 0 36.40599-39.994026m402.374176-402.2142a36.565966 36.565966 0 1 0 36.565966 36.565966 36.565966 36.565966 0 0 0-36.565966-36.565966m97.505434 86.29568a109.697898 109.697898 0 0 1-195.525077 0.137122 366.299566 366.299566 0 0 0-254.510551 254.921918 109.697898 109.697898 0 0 1 0.137123 195.250833 366.288139 366.288139 0 0 0 254.556258 254.47627 109.755033 109.755033 0 0 1 195.399382 0.068561 366.288139 366.288139 0 0 0 254.750515-254.29344 109.697898 109.697898 0 0 1 0.137122-195.753615 366.310992 366.310992 0 0 0-254.944772-254.819076m268.965535 348.61078a16.226147 16.226147 0 0 0 0 8.193061c0-1.451212 0.125696-2.902424 0.125695-4.353635s-0.079988-2.559618-0.102841-3.839426m35.788939-32.577991a36.565966 36.565966 0 1 0 36.565966 36.565966 36.565966 36.565966 0 0 0-36.565966-36.565966"  horiz-adv-x="1024" />

    
    <glyph glyph-name="shijianxuefei" unicode="&#58939;" d="M534.628583 204.114286l-0.205714 58.514285h130.502857a17.737143 17.737143 0 0 1 12.571428 5.245715 17.702857 17.702857 0 0 1 5.097143 12.434285v37.645715a17.611429 17.611429 0 0 1-5.142857 12.422857 17.6 17.6 0 0 1-12.411429 5.131428H548.400011L657.142869 448.354286a17.702857 17.702857 0 0 1 3.725714 5.828571l0.377143 0.96a17.668571 17.668571 0 0 1 1.211428 6.434286v12.571428a17.657143 17.657143 0 0 1-5.017143 12.342858 17.691429 17.691429 0 0 1-12.651428 5.337142h-40a17.714286 17.714286 0 0 1-6.697143-1.325714l-0.697143-0.285714a17.325714 17.325714 0 0 1-5.714286-3.76c-6.914286-6.8-16.342857-16-25.668571-25.451429-13.565714-13.611429-22.594286-22.857143-26.468571-27.222857-1.542857-1.142857 4.011429 4.628571-27.337143-28.502857a18.811429 18.811429 0 0 0-27.051429-0.308571l-46.662857 47.257142L422.857154 468.857143c-6 6.228571-11.862857 12.411429-16.32 17.142857a17.485714 17.485714 0 0 1-5.92 4.114286l-0.64 0.274285a17.565714 17.565714 0 0 1-6.914285 1.417143h-40.24a17.668571 17.668571 0 0 1-12.674286-5.371428 17.645714 17.645714 0 0 1-4.971429-12.4v-2.285715l0.068572-2.788571 0.068571-10.617143c0-7.211429 9.622857-17.348571 64.697143-73.885714l2.068571-2.114286c13.977143-14.285714 28.948571-29.451429 43.908572-44.571428a23.542857 23.542857 0 0 0 2.148571-2.285715H332.628583a17.577143 17.577143 0 0 1-12.4-5.131428 17.565714 17.565714 0 0 1-5.154286-12.422857v-37.714286a17.554286 17.554286 0 0 1 5.028572-12.297143 17.565714 17.565714 0 0 1 12.571428-5.257143H462.857154v-58.582857H332.925726a17.622857 17.622857 0 0 1-12.571429-5.302857 17.634286 17.634286 0 0 1-5.005714-12.308572v-37.337142a17.622857 17.622857 0 0 1 5.04-12.342858 17.622857 17.622857 0 0 1 12.571428-5.268571h130.285715v-107.062857a17.634286 17.634286 0 0 1 5.005714-12.308572 17.645714 17.645714 0 0 1 12.571429-5.325714h36.342857a17.6 17.6 0 0 1 12.571428 5.325714 17.6 17.6 0 0 1 5.005715 12.365715l-0.365715 106.891428H665.142869a17.565714 17.565714 0 0 1 12.491428 5.211429 17.577143 17.577143 0 0 1 5.062857 12.342857v37.714286A17.542857 17.542857 0 0 1 677.600011 198.857143a17.565714 17.565714 0 0 1-12.457142 5.257143zM732.01144 648.228571a12.354286 12.354286 0 0 0-4.822857 16.914286c5.531429 9.817143 10.845714 19.6 15.931428 29.234286 7.645714 14.594286 13.108571 25.748571 16.217143 32.491428 0.137143 0.297143 0.285714 0.582857 0.445715 0.868572 65.142857 114.662857 0.994286 197.462857-125.234286 158.434286-12.674286-4.571429-31.565714-10.845714-53.92-17.142858q-20.571429-5.794286-41.371429-10.148571a246.857143 246.857143 0 0 0-47.714285-6.011429c-12.011429 0-26.56 1.657143-43.108572 4.697143a654.457143 654.457143 0 0 0-97.28 27.428572l-0.708571 0.24C222.65144 923.782857 159.897154 843.28 224.457154 725.554286c0.148571-0.274286 0.285714-0.548571 0.411429-0.834286 2.605714-5.817143 9.051429-18.914286 17.965714-35.76 7.497143-14.011429 15.382857-28.16 23.645714-42.285714a12.354286 12.354286 0 0 0-4.068571-16.72C104.068583 529.748571 0.000011 356.891429 0.000011 154.514286a594.56 594.56 0 0 1 18.674286-147.931429c0.091429-0.377143 0.171429-0.765714 0.228572-1.142857a148.88 148.88 0 0 1 10.285714-34.937143c0.125714-0.297143 0.251429-0.605714 0.354286-0.925714l0.64-1.942857a12.285714 12.285714 0 0 1 1.062857-2.377143l12.937143-22.194286a11.2 11.2 0 0 1 0.605714-0.948571C76.045726-102.56 129.417154-128 193.85144-128h637.885714c94.194286 0 162.742857 54.057143 174.217143 138.057143a11.325714 11.325714 0 0 0 0.251429 1.268571A570.708571 570.708571 0 0 1 1024.000011 154.582857C1024.000011 370.708571 905.885726 554.285714 732.01144 648.228571zM939.428583 24.925714c-0.091429-0.365714-0.16-0.742857-0.217143-1.142857-7.28-51.165714-45.794286-81.314286-107.497143-81.314286H193.85144c-49.04 0-84.148571 19.542857-100.022857 51.508572l-1.337143 2.48-0.262857 0.902857a92.96 92.96 0 0 0-6.731429 23.017143 10.285714 10.285714 0 0 1-0.217143 1.028571 534.617143 534.617143 0 0 0-17.142857 133.154286c0 193.52 108.765714 356.571429 268.32 437.245714l0.171429 0.08a35.234286 35.234286 0 0 1 13.485714 50.914286L349.714297 643.428571a966.434286 966.434286 0 0 0-64.594286 114.4c-35.497143 64.697143-23.268571 80.651429 44.011429 60.342858l0.834286-0.285715c10.285714-3.897143 29.874286-10.571429 53.382857-17.142857 18.217143-5.177143 36.034286-9.462857 52.914286-12.571428 20.285714-3.794286 38.777143-5.862857 55.257142-5.862858 17.68 0 38.034286 2.628571 61.131429 7.314286 14.742857 3.04 30.228571 6.857143 46.045714 11.428572q28.765714 8.125714 56.982857 18.228571c65.405714 20.194286 78.857143 3.314286 43.714286-58.285714-0.137143-0.228571-0.262857-0.468571-0.377143-0.708572-3.977143-8.228571-8.937143-18.548571-16.114285-32.091428-12.045714-23.211429-25.668571-47.051429-40.342858-70.365715l-0.502857-0.8a35.234286 35.234286 0 0 1 16.377143-51.428571c173.977143-71.6 297.142857-244.342857 297.142857-451.051429A532.388571 532.388571 0 0 0 939.428583 24.925714z"  horiz-adv-x="1024" />

    
    <glyph glyph-name="yejianmoshi" unicode="&#58940;" d="M999.96115 163.106048C999.96115 2.3312819999999874 869.461606-128 708.482521-128S417.051967 2.3312819999999874 417.051967 163.106048s130.499545 291.094029 291.46661 291.094029S999.96115 323.904852 999.96115 163.106048M784.392921 823.163563l3.605624-10.997153a108.397071 108.397071 0 0 1 68.999621-68.903471l11.009171-3.605624c18.532906-6.105523 18.532906-32.294371 0-38.459987l-11.02119-3.605624a108.433127 108.433127 0 0 1-68.987602-68.891453l-3.605624-11.009171c-6.117542-18.508869-32.342446-18.508869-38.459987 0l-3.605624 10.997153a108.336977 108.336977 0 0 1-68.975584 68.891452l-11.02119 3.605624c-18.544925 6.105523-18.544925 32.294371 0 38.459987l11.009172 3.605624a108.361014 108.361014 0 0 1 68.987602 68.891452l3.605624 11.009172c6.117542 18.508869 32.342446 18.508869 38.459987 0M372.582606 811.036648A393.36154 393.36154 0 0 1 223.550155 719.321597C64.902707 563.991323 65.623832 305.02340100000004 225.581323 145.318304c159.356554-159.116179 415.379882-161.051197 571.863956-4.807498a392.556284 392.556284 0 0 1 94.587532 151.772725c-144.128803-41.284393-302.163294-1.706662-411.642053 107.639889S331.286195 667.076108 372.582606 811.036648m81.09048-11.670203c-38.459987-118.697136-7.271341-251.191792 83.950941-342.245812s223.873183-122.242666 342.690506-83.842773c56.043413 18.136288 110.668614-33.92892 93.601995-90.66942a473.538594 473.538594 0 0 0-119.262017-199.282828c-188.309713-188.069338-495.592993-185.737701-686.402606 4.807498C-23.362964 279.43549099999996-24.216295 590.0359450000001 166.785618 777.011578A474.403944 474.403944 0 0 0 362.77531 892.812196c56.83665 17.078638 109.094158-37.402338 90.933832-93.445751"  horiz-adv-x="1024" />

    
    <glyph glyph-name="wodeshoucang" unicode="&#58941;" d="M984.61417 147.69136000000003c0-152.26015-123.43121-275.69136-275.691361-275.69136S433.18219-4.568790000000035 433.18219 147.69136000000003s123.48047 275.71599 275.740619 275.71599 275.69136-123.45584 275.691361-275.71599M987.61898 539.671349l-305.234558 46.636136L547.709802 873.353088c-14.174331 30.195882-57.128343 30.195882-71.302675 0L341.609359 586.307485 36.374801 539.671349c-31.685973-4.839715-44.628824-43.483548-22.240524-66.499904L236.30553 245.532423l-52.030017-318.953243c-5.283048-32.461805 29.161439-56.721955 57.879546-40.835867L511.996891 34.91244900000004l269.792572-149.144506c28.767366-15.886088 63.211853 8.374062 57.879546 40.835867l-52.030017 318.953242 222.220512 227.663652c22.388301 22.967096 9.445449 61.573985-22.240524 66.499904m-117.803348-81.881085L712.4941 296.36790499999995a39.678276 39.678276 0 0 1-10.738503-34.050414l37.116799-227.749856a9.851838 9.851838 0 0 0-14.55609-10.258226L532.932045 130.19203400000004a39.616702 39.616702 0 0 1-38.286703 0l-191.359631-105.907254a9.851838 9.851838 0 0 0-14.55609 10.258226l37.116798 227.749855a39.678276 39.678276 0 0 1-10.738503 34.050414l-157.296902 161.446989a9.851838 9.851838 0 0 0 5.578603 16.698864l215.373485 32.929768a39.592072 39.592072 0 0 1 29.851068 22.351356l96.240138 205.201462a9.851838 9.851838 0 0 0 17.91803 0l96.240138-205.201462a39.592072 39.592072 0 0 1 29.851068-22.351356l215.336541-32.929768a9.851838 9.851838 0 0 0 5.578603-16.698864M669.072126 344.395613a39.40735 39.40735 0 0 0-39.40735-39.407351H393.380766a39.40735 39.40735 0 1 0 0 78.814701h236.308639a39.40735 39.40735 0 0 0 39.407351-39.40735"  horiz-adv-x="1024" />

    
    <glyph glyph-name="zaixianbaoming" unicode="&#58942;" d="M1003.507388 158.72576000000004c0-158.398763-128.398997-286.72576-286.71376-286.72576s-286.72576 128.398997-286.72576 286.72576 128.398997 286.71376 286.72576 286.71376 286.71376-128.398997 286.71376-286.71376M921.584028 527.36288V793.5928a20.47184 20.47184 0 0 1-20.47184 20.48384H122.870268a20.47184 20.47184 0 0 1-20.47184-20.48384v-778.22992a20.47184 20.47184 0 0 1 20.47184-20.48384h265.425926c22.391825 0 41.267678-17.627862 41.759674-40.019687a40.93168 40.93168 0 0 0-40.94368-41.891673H102.398428A81.91136 81.91136 0 0 0 20.475068-5.120959999999968V814.07664A81.92336 81.92336 0 0 0 102.398428 896h819.1856a81.92336 81.92336 0 0 0 81.92336-81.92336V527.36288a40.96768 40.96768 0 1 0-81.92336 0M511.991228 158.72576000000004a40.95568 40.95568 0 0 0-40.95568 40.95568V609.27424a40.95568 40.95568 0 1 0 81.91136 0v-409.5928a40.95568 40.95568 0 0 0-40.95568-40.95568M757.749308 404.48384a40.96768 40.96768 0 0 0-40.95568-40.96768H307.188828a40.96768 40.96768 0 0 0 0 81.92336h409.6048a40.95568 40.95568 0 0 0 40.95568-40.95568"  horiz-adv-x="1024" />

    
    <glyph glyph-name="liulanjilu" unicode="&#58943;" d="M983.231856 147.68861800000002C983.231856-4.568431000000032 860.160006-128 708.34661-128S433.461364-4.568431000000032 433.461364 147.68861800000002s123.07185 275.700609 274.885246 275.700609S983.231856 299.94566699999996 983.231856 147.68861800000002M904.693214 896h-785.386416A78.646557 78.646557 0 0 1 40.768156 817.233536v-866.467072A78.646557 78.646557 0 0 1 119.306798-128h785.386416a78.646557 78.646557 0 0 1 78.538642 78.766464V817.233536A78.646557 78.646557 0 0 1 904.693214 896z m0-925.532927a19.664637 19.664637 0 0 0-19.640655-19.700609H138.935463a19.664637 19.664637 0 0 0-19.628665 19.700609V797.532927a19.664637 19.664637 0 0 0 19.628665 19.700609h746.117096a19.664637 19.664637 0 0 0 19.640655-19.700609zM747.615931 620.311382a39.317283 39.317283 0 0 0-39.269321-39.389227h-392.693208a39.389227 39.389227 0 0 0 0 78.766463h392.693208a39.329274 39.329274 0 0 0 39.269321-39.377236M669.077289 384a39.317283 39.317283 0 0 0-39.26932-39.389227h-314.154567a39.389227 39.389227 0 0 0 0 78.778454h314.154567A39.341265 39.341265 0 0 0 669.077289 384M590.538648 147.68861800000002a39.305293 39.305293 0 0 0-39.269321-39.377236h-235.615925a39.389227 39.389227 0 0 0 0 78.766463h235.615925a39.341265 39.341265 0 0 0 39.269321-39.389227"  horiz-adv-x="1024" />

    
    <glyph glyph-name="xfup" unicode="&#58945;" d="M511.99456853 262.82010567L199.28445394 577.89833031a33.8487762 33.8487762 0 0 1-48.11175473 0 34.46796127 34.46796127 0 0 1 0-48.48109348l336.74969717-339.31334023a33.82705032 33.82705032 0 0 1 48.10089251 0l336.74969789 339.31334023a34.46796127 34.46796127 0 0 1 0 48.48109348 33.8487762 33.8487762 0 0 1-48.11175545 0z"  horiz-adv-x="1024" />

    
    <glyph glyph-name="fxdown" unicode="&#58946;" d="M512.00543147 505.17989433L824.71554606 190.10166969a33.8487762 33.8487762 0 0 1 48.11175473 0 34.46796127 34.46796127 0 0 1 0 48.48109348l-336.74969717 339.31334023a33.82705032 33.82705032 0 0 1-48.10089251 0l-336.74969789-339.31334023a34.46796127 34.46796127 0 0 1 0-48.48109348 33.8487762 33.8487762 0 0 1 48.11175545 0z"  horiz-adv-x="1024" />

    
    <glyph glyph-name="to" unicode="&#58947;" d="M668.87201095 383.99296875000005L260.99119062-20.822242500000016a43.81853625 43.81853625 0 0 1 0-62.28250781 44.620095 44.620095 0 0 1 62.76063094 0l439.254105 435.93537094a43.79041125 43.79041125 0 0 1 0 62.26844625l-439.254105 435.93537187a44.620095 44.620095 0 0 1-62.76063094 0 43.81853625 43.81853625 0 0 1 0-62.28250874z"  horiz-adv-x="1024" />

    
    <glyph glyph-name="guanbi-min" unicode="&#58948;" d="M561.20216229 384.0223746l246.12268026 246.07793109a34.80622204 34.80622204 0 0 1-49.22453628 49.22453568l-246.12268028-246.07793049L265.89969552 679.31589175a34.80622204 34.80622204 0 0 1-49.22453629-49.22453628l246.0779311-246.06898087-246.0689809-246.12268027a34.80622204 34.80622204 0 0 1 49.2245363-49.2245357l246.06898026 246.12268026 246.12268029-246.12268026a34.80622204 34.80622204 0 0 1 49.22453627 49.22453568z"  horiz-adv-x="1024" />

    
    <glyph glyph-name="jilu" unicode="&#58944;" d="M512 896C229.226761 896 0 666.773239 0 384S229.226761-128 512-128 1024 101.226761 1024 384 794.773239 896 512 896m0-938.668833c-235.635699 0-426.668833 191.098134-426.668833 426.668833S276.364301 810.668833 512 810.668833s426.668833-191.033134 426.668833-426.668833-191.033134-426.668833-426.668833-426.668833M727.940891 344.10339a42.704583 42.704583 0 0 0-42.678583-42.678584H471.921391a42.678583 42.678583 0 0 0 0 85.344167h213.340917a42.704583 42.704583 0 0 0 42.678583-42.665583M471.921391 683.309077a42.704583 42.704583 0 0 0 42.678584-42.678583v-296.540104a42.678583 42.678583 0 0 0-85.344167 0V640.630494a42.704583 42.704583 0 0 0 42.665583 42.678583"  horiz-adv-x="1024" />

    
    <glyph glyph-name="yanjing" unicode="&#58949;" d="M1061.21364356 635.7410280199999C772.02613762 635.7410280199999 537.59230527 523.03656978 537.59230527 384s234.43383234-251.74102802 523.62133829-251.74102802 523.62133829 112.70445825 523.62133828 251.74102802S1350.4011495 635.7410280199999 1061.21364356 635.7410280199999z m0-440.54679904c-244.69227924 0-443.06420933 84.53463721-443.06420933 188.80577102S816.52136432 572.8057710200001 1061.21364356 572.8057710200001s443.06420933-84.53463721 443.06420932-188.80577102-198.37193008-188.80577102-443.06420932-188.80577102zM935.34312955 384a125.87051402 62.935257009999994 0 1 1 251.74102802 0 125.87051402 62.935257009999994 0 1 1-251.74102802 0Z"  horiz-adv-x="2129" />

    
    <glyph glyph-name="tiwen" unicode="&#58950;" d="M512 384m-512 0a512 512 0 1 1 1024 0 512 512 0 1 1-1024 0ZM647.384615 694.326154c37.538462-32.849231 56.32-77.907692 56.32-134.227692 0-45.993846-12.209231-84.48-35.692307-114.523077q-12.676923-15.483077-78.855385-73.218462c-17.833846-15.015385-30.978462-31.913846-39.384615-48.812308-10.326154-18.769231-15.027692-39.384615-15.027693-61.944615v-16h-100.430769v16c0 34.732308 5.624615 64.763077 18.769231 89.169231 12.209231 26.276923 47.876923 64.763077 106.067692 116.393846l16 17.833846c16.898462 21.587692 26.276923 44.123077 26.276923 68.529231 0 32.849231-9.378462 58.190769-27.212307 76.972308-18.781538 18.769231-45.993846 28.16-79.79077 28.16-42.24 0-73.218462-13.144615-91.987692-40.369231q-25.353846-33.784615-25.353846-95.741539H278.523077c0 68.516923 19.692308 122.030769 59.138461 161.452308 39.384615 40.356923 93.870769 60.073846 163.335385 60.073846 60.073846 0 108.886154-15.950769 146.387692-49.747692z m-113.587692-518.153846q19.692308-18.289231 19.692308-47.864616c0-19.692308-7.507692-35.692308-20.652308-48.812307a70.473846 70.473846 0 0 0-48.812308-18.781539c-18.769231 0-35.692308 6.572308-48.812307 19.692308s-19.692308 29.095385-19.692308 47.876923q0 29.538462 19.692308 47.864615c13.144615 13.144615 30.043077 18.781538 48.812307 18.781539 19.790769 0.024615 36.676923-5.612308 49.821539-18.756923z"  horiz-adv-x="1024" />

    
    <glyph glyph-name="paihang" unicode="&#58951;" d="M1096.811437-55.161897a42.532226 42.532226 0 0 1-30.172547 12.493008h-85.331112v853.311112a85.331111 85.331111 0 0 1-85.331111 85.331111H597.317778a85.331111 85.331111 0 0 1-85.331111-85.331111v-191.995a21.332778 21.332778 0 0 0-21.332778-21.332778H213.327778a85.331111 85.331111 0 0 1-85.331111-85.331111v-554.652223H42.665556a42.665556 42.665556 0 1 1 0-85.331111h1023.973334a42.665556 42.665556 0 0 1 30.172547 72.838103zM511.986667-21.336111a21.332778 21.332778 0 0 0-21.332778-21.332778H234.660556a21.332778 21.332778 0 0 0-21.332778 21.332778v511.986667a21.332778 21.332778 0 0 0 21.332778 21.332778h255.993333a21.332778 21.332778 0 0 0 21.332778-21.332778z m383.99 0a21.332778 21.332778 0 0 0-21.332778-21.332778H618.650556a21.332778 21.332778 0 0 0-21.332778 21.332778v810.645556a21.332778 21.332778 0 0 0 21.332778 21.332778h255.993333a21.332778 21.332778 0 0 0 21.332778-21.332778z"  horiz-adv-x="1109" />

    
    <glyph glyph-name="shaixuan" unicode="&#58952;" d="M328.67832601 446.21642092V749.08413492a30.42367758 30.42367758 0 0 1-60.84735595-1e-8v-304.71214922C181.5893506 427.58191892 116.4921875 351.62730549 116.4921875 260.47986815s65.0971631-167.11155842 151.33878257-183.90162595V18.915865080000003a30.42367758 30.42367758 0 1 1 60.84735594 1e-8v55.81794188c91.76541831 12.13144126 162.57652834 90.66256021 162.57652834 185.74606117s-70.81111004 173.60511229-162.57652834 185.73655278z m-24.8048047-310.65427329a124.91771974 124.91771974 0 1 0 124.91771974 124.91772051 124.92722738 124.92722738 0 0 0-124.91771974-124.91772051zM766.01869547 693.25668539V749.08413492a30.42367758 30.42367758 0 1 1-60.84735594-1e-8v-57.67188475C618.92972007 674.61267577 553.83255697 598.6770768399999 553.83255697 507.52013185s65.0971631-167.08303628 151.33878256-183.89211754V18.915865080000003a30.42367758 30.42367758 0 1 1 60.84735594 1e-8V321.79308595c91.76541831 12.13144126 162.57652834 90.65305258 162.57652913 185.7270459s-70.81111004 173.59560465-162.57652913 185.73655354z m-24.80480469-310.64476563a124.91771974 124.91771974 0 1 0 124.91771974 124.90821209 124.91771974 124.91771974 0 0 0-124.91771974-124.90821209z"  horiz-adv-x="1051" />

    
    <glyph glyph-name="zhengque" unicode="&#58953;" d="M512 384m-512 0a512 512 0 1 1 1024 0 512 512 0 1 1-1024 0ZM409.033846 228.184615L265.846154 365.095385a31.273846 31.273846 0 0 0 0 45.636923 34.830769 34.830769 0 0 0 47.716923 0l143.187692-136.91077a32.603077 32.603077 0 0 0 5.083077-6.215384l312.615385 298.941538a34.830769 34.830769 0 0 0 47.716923 0 31.273846 31.273846 0 0 0 0-45.636923L488.098462 201.452308a34.830769 34.830769 0 0 0-47.716924 0c-5.132308 4.923077-9.255385 7.015385-15.88923 11.753846-9.353846 9.144615-9.353846 9.144615-15.458462 14.978461z"  horiz-adv-x="1024" />

    
    <glyph glyph-name="shanchu" unicode="&#58954;" d="M597.302224 512.019999v-426.644446a42.664445 42.664445 0 0 0-85.328889 0V512.019999a42.664445 42.664445 0 1 0 85.328889 0zM767.960002 426.69111v-255.986668a42.664445 42.664445 0 0 0-85.328889 0V426.69111a42.664445 42.664445 0 1 0 85.328889 0zM426.644446 426.69111v-255.986668a42.664445 42.664445 0 0 0-85.32889 0V426.69111a42.664445 42.664445 0 1 0 85.32889 0zM1096.782876 712.849539A42.531118 42.531118 0 0 1 1066.611114 725.342222H895.953336V810.671111a85.328889 85.328889 0 0 1-85.328889 85.328889H298.651112a85.328889 85.328889 0 0 1-85.328889-85.328889v-85.328889H42.664445a42.664445 42.664445 0 1 1 0-85.328889h85.328889v-682.631113a85.328889 85.328889 0 0 1 85.328889-85.328889h682.631113a85.328889 85.328889 0 0 1 85.328889 85.328889V640.013333h85.328889a42.664445 42.664445 0 0 1 30.171762 72.836206zM298.651112 789.338889a21.332222 21.332222 0 0 0 21.332222 21.332222h469.30889a21.332222 21.332222 0 0 0 21.332223-21.332222v-42.664445a21.332222 21.332222 0 0 0-21.332223-21.332222H319.983334a21.332222 21.332222 0 0 0-21.332222 21.332222z m597.302224-810.624447a21.332222 21.332222 0 0 0-21.332223-21.332222H234.654445a21.332222 21.332222 0 0 0-21.332222 21.332222V640.013333h682.631113z"  horiz-adv-x="1109" />

    
    <glyph glyph-name="diqu" unicode="&#58955;" d="M512 295.68c105.728 0 191.744 85.8624 191.744 191.4112S617.728 678.528 512 678.528 320.256 592.64 320.256 487.1168 406.272 295.68 512 295.68z m0.768-423.68h-0.768a65.5232 65.5232 0 0 0-47.2832 20.224c-9.6768 10.112-97.4336 102.656-184.7296 219.904C162.1504 270.336 102.4 396.544 102.4 487.0912 102.4 712.576 286.1568 896 512 896s409.6-183.424 409.6-408.8832c0-54.784-21.12-121.9072-62.72-199.4496-40.192-74.7776-100.5824-161.6384-179.5584-258.2272l-0.64-0.768-117.5296-134.4a64.6272 64.6272 0 0 0-48.384-22.272z"  horiz-adv-x="1024" />

    
    <glyph glyph-name="tuichudenglu" unicode="&#58956;" d="M851.26099455 723.56151538l0.20329343-0.20329341C1060.00775564 514.8147543 1036.46993844 162.17176435 781.02761396-13.915502049999986 633.64888309-115.52674650999995 390.35111691-115.52674650999995 242.97238604-13.915502049999986-12.46993844 162.17176435-36.00775564 514.8147543 172.53571202 723.3582219699999l0.20329343 0.20329341a40.00000031 40.00000031 0 0 0 56.56854227-56.56854228L229.15728731 666.84271269C59.54004794 497.22547334 74.09760946 213.17184071999998 272.83880849 63.203331049999974c141.22690187-106.57867004 337.11315837-106.59634726 478.32238302 0C949.90239054 213.17184071999998 964.45995206 497.22547334 794.84271269 666.84271269l-0.15026041 0.15026041a40.00000031 40.00000031 0 0 0 56.56854227 56.56854228zM551.99572775 982.82221648L551.99572775 502.82045574a40.00000031 40.00000031 0 0 0-79.9914555 0L472.00427225 982.82221648a40.00000031 40.00000031 0 0 0 79.9914555 0z"  horiz-adv-x="1024" />

    
    <glyph glyph-name="tianjia_min-copy" unicode="&#58957;" d="M546.80700384 349.22463862999996l348.03838999-0.03164244a34.80622204 34.80622204 0 0 1-4.3e-7 69.61400638l-348.03838958 0.03164288L546.8006755 766.8390638a34.80622204 34.80622204 0 0 1-69.61400682 1e-8l0.00632877-348.0004188-348.03206126-0.03797119a34.80622204 34.80622204 0 0 1 4.3e-7-69.61400641l348.0320608 0.03797163 2e-8-348.07003245a34.80622204 34.80622204 0 0 1 69.61400637-4.2e-7z"  horiz-adv-x="1024" />

    


  </font>
</defs>
</svg>
